<?xml version="1.0" encoding="UTF-8" standalone="no"?>
<!-- Created with Inkscape (http://www.inkscape.org/) -->

<svg
   xmlns:dc="http://purl.org/dc/elements/1.1/"
   xmlns:cc="http://creativecommons.org/ns#"
   xmlns:rdf="http://www.w3.org/1999/02/22-rdf-syntax-ns#"
   xmlns:svg="http://www.w3.org/2000/svg"
   xmlns="http://www.w3.org/2000/svg"
   version="1.1"
   width="100"
   height="100"
   viewBox="0 0 100 100"
   id="svg2"
   xml:space="preserve"
   style="overflow:visible"><path
     d="M 49.572215,5.515 7,20.497239 13.727077,76.273901 49.617519,96 85.69279,76.006177 92.417811,20.231574 49.572215,5.515 z m 0,0"
     id="path22"
     fill="#b2b2b2" /><path
     d="M 88.171818,23.455587 49.473358,10.258861 V 91.28703 L 81.904503,73.33872 88.171818,23.455587 z m 0,0"
     id="path24"
     fill="#b52e31" /><path
     d="M 11.777326,23.69345 17.541627,73.577098 49.472328,91.28703 V 10.257316 L 11.777326,23.69345 z m 0,0"
     id="path26"
     fill="#e23237" /><path
     d="M 58.443134,50.561083 49.543385,31.976414 41.708856,50.561083 h 16.734278 z m 3.392891,7.814963 H 38.245429 L 32.967673,71.576892 23.150961,71.75812 49.473358,13.201249 76.713237,71.757605 H 67.614223 L 61.836025,58.376046 z m 0,0"
     id="path28"
     fill="#f2f2f2" /><path
     d="m 49.473358,13.201249 0.07002,18.775165 8.890482,18.599086 h -8.940946 l -0.02005,7.788189 12.362656,0.01185 5.77821,13.384132 9.393504,0.174536 -27.533866,-58.732954 z m 0,0"
     id="path30"
     fill="#b2b2b2" /></svg>
