<?xml version="1.0" encoding="UTF-8" standalone="no"?>
<!-- Created with Inkscape (http://www.inkscape.org/) -->

<svg
   xmlns:dc="http://purl.org/dc/elements/1.1/"
   xmlns:cc="http://creativecommons.org/ns#"
   xmlns:rdf="http://www.w3.org/1999/02/22-rdf-syntax-ns#"
   xmlns:svg="http://www.w3.org/2000/svg"
   xmlns="http://www.w3.org/2000/svg"
   version="1.1"
   width="150"
   height="100"
   viewBox="0 0 150 100"
   id="svg2">
  <path
     d="m 42.305986,10.946014 c 4.242,-2.8440104 9.240005,-4.7670156 14.397,-4.7430101 4.821,-0.021043 9.765012,1.3619949 13.512012,4.4789851 1.920028,1.554012 3.471012,3.504023 4.788002,5.58 2.369999,-3.830962 5.831999,-7.0859886 10.100986,-8.6549848 5.202026,-1.9530027 11.082002,-1.8180001 16.274954,0.096032 4.536,1.6560106 8.50223,4.5419838 12.0991,7.7160058 2.81386,2.483999 5.41813,5.202022 8.31573,7.592979 1.52703,1.239022 3.16801,2.400034 5.04623,3.042024 2.49617,0.851984 5.44817,0.04815 7.23315,-1.875002 1.65289,-1.799999 1.55085,-4.911022 -0.2704,-6.554992 -1.15768,-0.998988 -3.13795,-0.798022 -3.95688,0.533978 -0.7169,1.056017 -0.31494,2.373012 0.24603,3.396016 -1.49074,-1.089013 -2.98514,-2.607004 -2.97893,-4.587004 -0.30907,-2.288997 1.38926,-4.307997 3.42286,-5.109013 3.96932,-1.586985 8.94612,-0.218987 11.45109,3.276 2.40918,3.261028 2.60118,7.54802 2.18125,11.433028 -0.5071,3.689975 -2.57127,7.133964 -5.63101,9.269975 -4.29619,3.066012 -9.74126,4.017017 -14.92213,3.95099 -4.97993,-0.134919 -9.90907,-1.26 -14.52293,-3.11997 -7.71627,-3.102022 -14.937101,-7.38901 -22.905114,-9.867019 -2.642973,-1.025976 -5.453973,-1.58098 -8.28,-1.751969 0.0057,16.619968 -0.02999,33.242958 -0.0028,49.865993 -0.02097,5.538006 0.05096,11.082007 -0.0331,16.616994 -0.04197,-0.645007 -0.08071,-1.290005 -0.09592,-1.931996 0.04816,-21.534009 0.02093,-43.065011 0.01086,-64.599023 -2.129994,0.03309 -4.262974,-0.072 -6.386974,0.072 -2.592,0.248999 -5.169026,0.77999 -7.596,1.73102 -8.102999,2.52 -15.432039,6.914993 -23.294999,10.023005 -6.63902,2.582992 -13.994992,3.782995 -21.042021,2.348972 -3.941973,-0.797977 -7.865973,-2.540983 -10.5269723,-5.645997 -2.2770158,-2.63998 -3.3690268,-6.173974 -3.2610268,-9.635984 -0.126029,-3.266989 0.591028,-6.737994 2.751027,-9.28199 2.0099871,-2.412 5.2469861,-3.636 8.3549991,-3.366025 2.000974,0.09313 4.029001,0.965994 5.265002,2.577026 0.972,1.274974 1.031999,3.020998 0.605999,4.511988 -0.519014,1.341007 -1.59,2.388 -2.754028,3.192013 0.594028,-1.002033 0.954028,-2.325028 0.252,-3.372013 -0.863999,-1.394993 -2.991,-1.536001 -4.115969,-0.390013 -1.386017,1.425018 -1.677017,3.753014 -0.74703,5.498993 1.007999,1.830025 3.093,2.874025 5.111999,3.087033 3.054004,0.263987 5.703028,-1.629012 7.944041,-3.465012 4.637982,-3.992986 8.813982,-8.561993 13.958967,-11.939999 z"
     id="path6"
     fill="#423426" />
  <path
     d="m 71.399999,25.072975 c 2.124,-0.143999 4.257014,-0.03891 6.387027,-0.072 0.0099,21.534011 0.03618,43.065012 -0.01086,64.599024 0.01493,0.641988 0.05381,1.286988 0.09592,1.931985 0.01493,0.39299 -0.288001,0.690002 -0.507008,0.978003 -0.01086,0.01496 -0.03309,0.042 -0.04492,0.05705 -0.999052,1.637972 -3.489001,1.670952 -4.824,0.449973 -0.906012,-0.870012 -1.122012,-2.213972 -1.104039,-3.414007 0.01086,-14.700005 0.174006,-29.402985 0.05099,-44.102991 -0.03888,-6.81002 -0.04815,-13.620012 -0.04197,-20.427033 z"
     id="path8"
     fill="#bab4b1" />
  <path
     d="m 77.319025,92.567025 c 0.01086,-0.01496 0.03309,-0.042 0.04493,-0.05705 -0.01212,0.01497 -0.03309,0.04199 -0.04493,0.05705 z"
     id="path10"
     fill="#423426" />
</svg>
