<?xml version="1.0" encoding="UTF-8" standalone="no"?>
<!-- Created with Inkscape (http://www.inkscape.org/) -->

<svg
   xmlns:dc="http://purl.org/dc/elements/1.1/"
   xmlns:cc="http://creativecommons.org/ns#"
   xmlns:rdf="http://www.w3.org/1999/02/22-rdf-syntax-ns#"
   xmlns:svg="http://www.w3.org/2000/svg"
   xmlns="http://www.w3.org/2000/svg"
   version="1.1"
   width="100"
   height="100"
   viewBox="0 65.326 100 99.999997"
   id="Layer_1"
   xml:space="preserve"><path
     d="M 35.931563,80.326774 C 20.348195,80.439333 3.1839314,92.732342 5.1552716,111.02845 c 0.6327999,5.87413 2.7254634,9.26412 7.6722704,11.4929 5.339312,2.4059 8.385661,7.93376 7.412712,16.42626 -1.461041,0.70966 -2.559581,1.60417 -2.813553,2.91068 1.107509,-0.0248 2.197518,-0.0454 3.322086,0.63128 2.990173,1.79962 4.602393,3.97926 6.320495,7.52134 0.252061,0.51947 1.204717,0.41431 1.222365,-0.4476 0.025,-1.23131 -0.272944,-2.53826 -0.768537,-3.91672 -0.434562,-1.20892 0.449857,-1.16121 1.017215,-0.88796 0.941036,0.45298 2.402077,1.37134 4.469154,1.90476 0.79295,0.20462 0.881626,-0.56382 0.768243,-1.01666 -0.274121,-1.09389 -1.618986,-1.5796 -3.605767,-2.79636 -0.708828,-0.43396 -0.136324,-1.41586 0.760007,-1.21445 l 2.975614,0.35121 c 0.493976,0.11096 0.66986,-0.88912 0.129708,-1.14522 -2.08796,-0.98947 -4.249596,-1.46851 -7.921246,-1.13416 -1.708396,-4.25585 -4.384008,-8.96063 -2.305018,-11.87841 1.858691,-2.60862 4.590627,-3.01611 5.756961,6.32436 -0.735598,0.45182 -1.649278,0.73163 -1.666485,1.894 1.058979,-0.41374 1.6481,-0.20344 2.175165,0 2.634139,1.01769 5.215044,3.17404 7.791538,5.42565 0.549857,0.48034 1.237215,-0.24984 1.028095,-0.8775 -0.314414,-0.94438 -1.184273,-1.55008 -2.175166,-2.91079 -0.476327,-0.65371 0.739715,-1.02453 1.600898,-0.99996 2.036632,0.0576 3.365616,1.20236 5.17313,1.63138 0.659272,0.15647 1.432513,-0.28562 1.017217,-1.0059 -0.510593,-0.88493 -1.913988,-1.32688 -2.820613,-1.95059 -0.640741,-0.44048 -0.444857,-1.03716 0.39662,-0.9601 0.574269,0.0523 1.246775,0.33027 2.045313,0.25697 1.462658,-0.13451 1.134861,-1.04254 -0.129855,-1.39112 -2.799435,-0.77133 -5.866373,-0.91777 -9.068459,-0.75984 -6.446674,-1.21546 -4.640334,-12.34464 0,-13.141 4.348713,-0.74631 9.259784,-1.9398 14.69542,-4.67626 4.804158,-0.7895 9.534638,-1.80995 13.667614,-4.9226 7.074468,-2.10415 16.456467,2.34321 30.035704,21.76929 0.577361,0.82615 2.32634,1.44552 1.400596,-0.92359 -2.33722,-5.98058 -10.02597,-13.57216 -13.548645,-19.20838 -3.614883,-5.78409 -2.108842,-8.90621 -5.876079,-13.269518 C 72.173786,94.501429 68.324344,94.381455 63.936508,95.608546 60.486332,96.573288 58.166755,94.57356 56.145267,91.06069 51.826846,83.554322 44.094132,80.268022 35.931563,80.326774 z m 34.617653,20.021886"
     id="path3"
     fill="#94d31b" /></svg>
