<?xml version="1.0" encoding="UTF-8" standalone="no"?>
<!-- Created with Inkscape (http://www.inkscape.org/) -->
<!DOCTYPE svg PUBLIC "-//W3C//DTD SVG 1.1//EN" "http://www.w3.org/Graphics/SVG/1.1/DTD/svg11.dtd">
<svg
   xmlns:dc="http://purl.org/dc/elements/1.1/"
   xmlns:cc="http://creativecommons.org/ns#"
   xmlns:rdf="http://www.w3.org/1999/02/22-rdf-syntax-ns#"
   xmlns:svg="http://www.w3.org/2000/svg"
   xmlns="http://www.w3.org/2000/svg"
   version="1.1"
   width="150"
   height="150"
   viewBox="0 0 150 150"
   id="Layer_1"
   xml:space="preserve"><g
     transform="matrix(1.0821691,0,0,1.0821685,-330.81395,-6.25422)"
     id="g3"><g
       id="g5"><path
         d="m 383.359,69.575 10.656,-25.457 c 0.127,-0.306 0.479,-0.45 0.784,-0.322 0.305,0.128 0.45,0.479 0.321,0.786 l -9.389,22.431 -2.372,2.562 z"
         id="path7"
         fill="#939598" /></g><path
       d="m 392.551,56.62 c 0,0 -5.1,6.75 -8.699,10.65 C 380.25,71.171 375,77.321 375,77.321 v 13.751 c 0.038,-0.002 0.073,-0.01 0.111,-0.01 0.87,0 1.575,0.705 1.575,1.574 0,0.871 -0.705,1.576 -1.575,1.576 -0.038,0 -0.073,-0.01 -0.111,-0.012 v 13.873 c 0,0 6.611,-4.537 11.4,-8.926 5.399,-4.949 11.4,-12.677 11.4,-12.677 l -5.249,-29.85 z"
       id="path9"
       fill="#931a2b" /><polygon
       points="371.257,31.458 371.208,36.819 351.944,44.613 352.282,39.849 "
       id="polygon11"
       fill="#a7a9ac" /><polygon
       points="398.02,39.662 398.395,44.423 379.034,36.787 378.943,31.427 "
       id="polygon13"
       fill="#bcbec0" /><polygon
       points="375.091,29.763 375.112,35.239 346.932,24.123 347.517,17.858 "
       id="polygon15"
       fill="#bcbec0" /><polygon
       points="347.517,17.858 346.932,24.123 343.195,26.35 343.841,20.233 "
       id="polygon17"
       fill="#bcbec0" /><polygon
       points="402.541,17.625 403.173,23.886 375.112,35.239 375.091,29.763 "
       id="polygon19"
       fill="#a7a9ac" /><polygon
       points="406.245,19.969 406.938,26.082 403.173,23.886 402.541,17.625 "
       id="polygon21"
       fill="#bcbec0" /><polygon
       points="355.78,45.708 351.944,44.613 371.208,36.819 343.195,26.35 346.932,24.123 375.112,35.239 403.173,23.886 406.938,26.082 379.034,36.787 398.395,44.423 394.568,45.55 375.13,38.285 "
       id="polygon23"
       fill="#808285" /><g
       id="g25"><path
         d="m 343.499,61.431 c -0.02,0 -0.04,0 -0.06,-0.003 -0.33,-0.033 -0.571,-0.326 -0.538,-0.656 l 3.434,-34.607 c 0.032,-0.329 0.319,-0.571 0.656,-0.538 0.329,0.033 0.57,0.327 0.537,0.656 l -3.433,34.607 c -0.031,0.31 -0.291,0.541 -0.596,0.541 z"
         id="path27"
         fill="#939598" /></g><g
       id="g29"><path
         d="m 405.247,61.431 c -0.314,0 -0.579,-0.246 -0.598,-0.564 l -2.075,-34.845 c -0.021,-0.331 0.231,-0.615 0.562,-0.635 0.338,-0.022 0.615,0.232 0.636,0.563 l 2.074,34.844 c 0.021,0.331 -0.231,0.615 -0.562,0.635 -0.013,0.002 -0.025,0.002 -0.037,0.002 z"
         id="path31"
         fill="#939598" /></g><g
       id="g33"><path
         d="m 365.162,68.395 -9.935,-23.654 c -0.128,-0.306 0.016,-0.658 0.32,-0.786 0.307,-0.128 0.658,0.016 0.786,0.321 l 11.026,26.253 -2.197,-2.134 z"
         id="path35"
         fill="#939598" /></g><path
       d="m 373.537,92.637 c 0,-0.832 0.646,-1.506 1.463,-1.564 V 77.321 c 0,0 -5.25,-6.15 -8.851,-10.051 -3.6,-3.9 -8.7,-10.65 -8.7,-10.65 l -5.25,29.852 c 0,0 6,7.728 11.4,12.677 4.789,4.389 11.4,8.926 11.4,8.926 V 94.201 c -0.815,-0.058 -1.462,-0.732 -1.462,-1.564 z"
       id="path37"
       fill="#a81e2c" /><g
       id="g39"><path
         d="m 375.111,93.537 c -0.146,0 -0.293,-0.053 -0.408,-0.16 l -20.676,-19.197 -0.006,-1.643 21.085,19.576 20.82,-19.81 0.084,1.576 -20.485,19.491 c -0.116,0.112 -0.264,0.167 -0.414,0.167 z"
         id="path41"
         fill="#939598" /></g><path
       d="m 418.353,60.82 -25.802,-4.2 c 0,0 2.4,13.801 2.4,36.901 0,23.104 -3.15,38.854 -3.15,38.854 l 26.103,-2.85 c 0,0 3.3,-12.603 3.3,-34.354 -0.002,-21.75 -2.851,-34.351 -2.851,-34.351 z m -11.926,60.905 c -0.704,0 -1.274,-0.57 -1.274,-1.274 0,-0.703 0.57,-1.275 1.274,-1.275 0.705,0 1.275,0.572 1.275,1.275 0,0.703 -0.57,1.274 -1.275,1.274 z"
       id="path43"
       fill="#ce2227" /><path
       d="m 355.049,93.521 c 0,-23.101 2.4,-36.901 2.4,-36.901 l -25.802,4.2 c 0,0 -2.85,12.601 -2.85,34.352 0,21.752 3.3,34.354 3.3,34.354 l 26.102,2.851 c 0,-0.002 -3.15,-15.752 -3.15,-38.856 z m -11.955,28.12 c -0.657,0 -1.189,-0.533 -1.189,-1.19 0,-0.656 0.532,-1.189 1.189,-1.189 0.657,0 1.189,0.533 1.189,1.189 0,0.656 -0.532,1.19 -1.189,1.19 z"
       id="path45"
       fill="#ce2227" /><path
       d="M 403.427,120.449"
       id="path47"
       fill="none;stroke:#6d6e71;stroke-width:4;stroke-linecap:round;stroke-miterlimit:10" /><path
       d="M 403.427,120.449"
       id="path49"
       fill="none;stroke:#6d6e71;stroke-width:4;stroke-linecap:round;stroke-miterlimit:10" /><circle
       cx="406.427"
       cy="68.396004"
       r="1.179"
       id="circle51"
       fill="#a51724" /><g
       id="g53"><path
         d="m 406.428,121.051 c -0.046,0 -0.093,-0.006 -0.14,-0.018 -0.322,-0.076 -0.521,-0.398 -0.445,-0.723 0.019,-0.074 1.784,-7.742 1.784,-25.499 0,-17.793 -1.769,-26.208 -1.787,-26.29 -0.068,-0.324 0.137,-0.644 0.461,-0.713 0.321,-0.071 0.644,0.136 0.713,0.46 0.019,0.084 1.813,8.625 1.813,26.543 0,17.926 -1.742,25.463 -1.816,25.775 -0.066,0.279 -0.312,0.465 -0.583,0.465 z"
         id="path55"
         fill="#939598" /></g><circle
       cx="343.09399"
       cy="68.396004"
       r="1.383"
       id="circle57"
       fill="#a51724" /><g
       id="g59"><path
         d="m 343.093,121.051 c -0.292,0 -0.548,-0.215 -0.593,-0.512 -0.015,-0.1 -1.507,-10.203 -1.507,-26.041 0,-15.838 1.492,-26.088 1.507,-26.19 0.049,-0.328 0.354,-0.553 0.682,-0.505 0.327,0.048 0.554,0.354 0.506,0.681 -0.016,0.101 -1.494,10.272 -1.494,26.015 0,15.75 1.479,25.765 1.493,25.862 0.05,0.326 -0.176,0.634 -0.504,0.683 -0.031,0.003 -0.061,0.007 -0.09,0.007 z"
         id="path61"
         fill="#939598" /></g></g></svg>
