<svg viewBox="0 0 100 100" xmlns="http://www.w3.org/2000/svg">
  <symbol viewBox="0 0 24 24" id="nav">
    <title>nav</title>
    <path d="M0 0h24v24h-24z" fill="none" />
    <path d="M3 18h18v-2h-18v2zm0-5h18v-2h-18v2zm0-7v2h18v-2h-18z" /> </symbol>
  <symbol viewBox="0 0 415 414.996" id="bitbucket">
    <title>bitbucket</title>
    <path d="M207.219,47.608v0.004V47.608c-76.287,0-138.578,20.511-138.578,45.976c0,6.709,16.636,102.882,23.234,141.022

	c2.959,17.105,47.162,42.185,115.309,42.185l0.07-0.204v0.204c68.146,0,112.35-25.079,115.309-42.185

	c6.599-38.141,23.235-134.313,23.235-141.022C345.798,68.119,283.506,47.608,207.219,47.608z M207.219,245.894

	c-24.329,0-44.051-19.725-44.051-44.051c0-24.332,19.722-44.053,44.051-44.053s44.051,19.721,44.051,44.053

	C251.27,226.169,231.548,245.894,207.219,245.894z M207.194,107.794c-49.015-0.079-88.733-8.595-88.719-19.025

	c0.017-10.432,39.768-18.82,88.781-18.74c49.013,0.08,88.733,8.593,88.716,19.025C295.956,99.487,256.208,107.872,207.194,107.794z" />
    <path d="M306.82,272.833c-2.107,0-3.795,1.491-3.795,1.491s-34.128,27.023-95.807,27.025c-61.679-0.002-95.807-27.025-95.807-27.025

	s-1.688-1.491-3.794-1.491c-2.516,0-4.902,1.69-4.902,5.42c0,0.395,0.037,0.787,0.11,1.173c5.297,28.349,9.166,48.463,9.848,51.524

	c4.623,20.854,45.414,36.589,94.541,36.592l0,0h0.004h0.004l0,0c49.128-0.003,89.918-15.738,94.541-36.592

	c0.682-3.062,4.551-23.176,9.848-51.524c0.073-0.386,0.11-0.778,0.11-1.173C311.722,274.523,309.335,272.833,306.82,272.833z" /> </symbol>
  <symbol viewBox="0 0 415 414.996" id="email">
    <title>email</title>
    <path d="M321.548,165.366L210.82,88.71c-2.464-1.913-5.982-2.091-8.668-0.202L93.276,165.472c-2.084,1.287-3.473,3.592-3.473,6.221

	v137.479c0,4.035,3.271,7.307,7.308,7.307h220.776c4.037,0,7.307-3.271,7.307-7.307V171.692

	C325.194,168.99,323.728,166.631,321.548,165.366z M206.399,103.369l98.488,68.183l-88.674,58.68l-4.716-3.251

	c-2.458-1.962-6.005-2.172-8.719-0.285l-4.708,3.278l-88.061-58.469L206.399,103.369z M104.419,185.296l80.784,53.639

	l-80.784,56.252V185.296z M120.381,301.863l86.601-60.302l4.728,3.259c0.188,0.145,0.384,0.278,0.584,0.402l82.161,56.641H120.381z

	 M310.581,295.286l-81.424-56.133l81.424-53.883V295.286z" /> </symbol>
  <symbol viewBox="0 0 415 414.996" id="github">
    <title>github</title>
    <g>
      <path fill-rule="evenodd" clip-rule="evenodd" d="M357.654,260.769c-0.958,3.177-2.035,6.203-3.211,9.09l-1.378,3.188

		c-32.427,71.199-243.317,79.506-277.986-12.342l-1.163-3.242c-4.91-14.454-7.086-31.007-7.086-49.499

		c0-32.828,10.231-45.213,23.963-62.713c-10.5-37.426,3.77-63.005,3.77-63.005s22.079-4.577,63.813,25.309

		c22.617-9.693,82.928-10.5,111.469-2.153c17.501-11.579,49.543-28.002,62.466-23.403c3.502,5.632,11.041,22.056,4.579,58.137

		c4.384,7.915,27.193,24.771,27.28,72.427c-0.367,17.577-2.197,32.419-5.591,44.967L357.654,260.769L357.654,260.769z

		 M327.646,249.45c0-23.694-11.018-54.389-54.388-54.389c-3.177,0-27.938,2.692-52.417,2.692c-27.571,0-56.125-2.692-60.496-2.692

		c-44.157,0-55.099,35.326-55.099,51.513C105.247,343.673,327.646,340.114,327.646,249.45z" />
      <path fill-rule="evenodd" clip-rule="evenodd" d="M179.557,249.18c0-18.983-10.326-34.375-23.066-34.375

		c-12.739,0-23.065,15.392-23.065,34.375s10.326,32.22,23.065,32.22C169.23,281.4,179.557,268.165,179.557,249.18z" />
      <path fill-rule="evenodd" clip-rule="evenodd" d="M304.217,249.18c0-18.983-10.324-34.375-23.064-34.375

		c-12.737,0-23.064,15.392-23.064,34.375s10.327,32.22,23.064,32.22C293.893,281.4,304.217,268.165,304.217,249.18z" />
      <path fill-rule="evenodd" clip-rule="evenodd" d="M217.162,302.045c-8.244,0-14.271-7.084-14.271-10.772

		c0-0.89,0.723-1.616,1.616-1.616c0.893,0,1.616,0.726,1.616,1.616c0,1.824,4.581,7.54,11.039,7.54c5.6,0,9.781-3.98,9.781-7.54

		c0-0.89,0.725-1.616,1.616-1.616s1.613,0.726,1.613,1.616C230.174,296.368,224.831,302.045,217.162,302.045z" />
      <circle fill-rule="evenodd" clip-rule="evenodd" cx="216.983" cy="277.902" r="5.565" />
      <ellipse fill-rule="evenodd" clip-rule="evenodd" cx="156.491" cy="249.18" rx="15.168" ry="22.259" />
      <ellipse fill-rule="evenodd" clip-rule="evenodd" cx="281.154" cy="249.18" rx="15.169" ry="22.259" /> </g>
  </symbol>
  <symbol viewBox="0 0 415 415" id="google">
    <title>google</title>
    <g>
      <polygon points="368.346,131.916 314.569,131.916 314.569,78.139 301.125,78.139 301.125,131.916 247.348,131.916 247.348,145.36 

		301.125,145.36 301.125,199.137 314.569,199.137 314.569,145.36 368.346,145.36 	" />
      <path d="M188.43,232.613c-7.512-5.317-21.877-18.25-21.877-25.851c0-8.908,2.543-13.298,15.951-23.774

		c13.745-10.74,23.472-25.836,23.472-43.4c0-20.905-9.311-41.283-26.79-48.004h26.352l18.599-13.445c0,0-62.333,0-83.108,0

		c-37.26,0-72.326,28.228-72.326,60.926c0,33.413,25.398,60.381,63.304,60.381c2.636,0,5.197-0.052,7.705-0.232

		c-2.46,4.709-4.219,10.015-4.219,15.521c0,9.286,4.995,16.815,11.312,22.96c-4.771,0-9.381,0.138-14.407,0.138

		c-46.15,0-81.671,29.393-81.671,59.872c0,30.017,38.94,48.795,85.092,48.795c52.613,0,81.672-29.853,81.672-59.872

		C217.488,262.557,210.387,248.142,188.43,232.613L188.43,232.613z M144.031,190.975L144.031,190.975

		c-21.414-0.64-41.762-23.955-45.458-52.069c-3.695-28.119,10.661-49.641,32.069-49.001c21.406,0.644,41.763,23.205,45.46,51.32

		C179.796,169.344,165.436,191.614,144.031,190.975L144.031,190.975z M135.646,333.229L135.646,333.229

		c-31.898,0-54.938-20.192-54.938-44.449c0-23.773,28.576-43.562,60.475-43.218c7.445,0.079,14.382,1.277,20.681,3.315

		c17.315,12.042,29.737,18.847,33.241,32.57c0.66,2.784,1.018,5.646,1.018,8.57C196.123,314.273,180.493,333.229,135.646,333.229z" /> </g>
  </symbol>
  <symbol viewBox="0 0 415 414.996" id="linkedin">
    <title>linkedin</title>
    <g>
      <path fill-rule="evenodd" clip-rule="evenodd" d="M107.855,132.377c19.812,0,32.15-13.141,32.15-29.546

		c-0.369-16.771-12.338-29.54-31.771-29.54c-19.441,0-32.15,12.769-32.15,29.54c0,16.405,12.334,29.546,31.402,29.546H107.855

		L107.855,132.377z M136.27,326.683V155.711H79.443v170.972H136.27z" />
      <path fill-rule="evenodd" clip-rule="evenodd" d="M167.715,326.683h56.826v-95.479c0-5.108,0.369-10.217,1.871-13.863

		c4.109-10.213,13.457-20.788,29.156-20.788c20.568,0,28.787,15.683,28.787,38.664v91.466h56.826V228.65

		c0-52.514-28.033-76.952-65.426-76.952c-30.658,0-44.117,17.139-51.59,28.81h0.375v-24.797h-56.826

		C168.461,171.75,167.715,326.683,167.715,326.683L167.715,326.683z" /> </g>
  </symbol>
  <symbol viewBox="0 0 600 600" id="slidescom">
    <title>slidescom</title>
    <rect width="600" height="600" />
    <path id="slidescom-S" fill="#FFFFFF" d="M212.251,389.338c0-3.246,2.027-8.127,6.099-14.637c4.064-6.504,7.724-9.758,10.979-9.758
	c0.319,0,2.928,1.547,7.806,4.635c4.88,3.096,11.872,6.182,20.982,9.271c9.103,3.096,20.082,4.635,32.936,4.635
	c12.846,0,23.421-3.66,31.716-10.979c8.295-7.32,12.441-17.238,12.441-29.764c0-12.518-3.659-22.277-10.979-29.275
	c-7.318-6.992-21.88-13.579-43.67-19.762c-21.796-6.176-37.57-14.065-47.328-23.664c-9.759-9.592-14.638-24.153-14.638-43.671
	c0-19.517,7.479-35.863,22.444-49.037c14.958-13.174,34.476-19.761,58.552-19.761c16.591,0,31.388,2.119,44.402,6.343
	c13.007,4.231,19.517,8.951,19.517,14.15c0,4.232-1.875,9.683-5.61,16.346c-3.744,6.671-7.075,10.003-10.004,10.003
	c-0.328,0-2.438-0.976-6.341-2.928c-11.063-5.856-23.506-8.784-37.328-8.784c-13.83,0-24.565,2.852-32.203,8.54
	c-7.647,5.694-11.467,13.098-11.467,22.2c0,9.111,2.844,16.27,8.539,21.47c5.688,5.207,15.37,9.927,29.033,14.149
	c30.571,9.438,51.309,19.762,62.21,30.985c10.896,11.222,16.348,28.14,16.348,50.745c0,22.613-8.052,41.229-24.154,55.867
	c-16.102,14.639-35.374,21.957-57.819,21.957c-22.445,0-41.803-3.33-58.064-10.002C220.378,401.949,212.251,395.523,212.251,389.338
	z" /> </symbol>
  <symbol viewBox="0 0 415 414.996" id="twitter">
    <title>twitter</title>
    <path d="M345.358,127.048c-9.754,4.326-20.237,7.249-31.239,8.564c11.229-6.731,19.854-17.39,23.915-30.092

	c-10.511,6.233-22.15,10.76-34.541,13.199c-9.921-10.571-24.058-17.176-39.701-17.176c-30.039,0-54.393,24.353-54.393,54.391

	c0,4.263,0.48,8.414,1.408,12.396c-45.205-2.269-85.283-23.923-112.11-56.831c-4.683,8.033-7.364,17.376-7.364,27.345

	c0,18.871,9.602,35.52,24.197,45.273c-8.917-0.283-17.304-2.729-24.637-6.803c-0.005,0.227-0.005,0.454-0.005,0.684

	c0,26.354,18.749,48.335,43.632,53.335c-4.564,1.242-9.369,1.908-14.33,1.908c-3.505,0-6.912-0.342-10.234-0.977

	c6.922,21.608,27.01,37.334,50.811,37.771c-18.614,14.59-42.068,23.287-67.552,23.287c-4.39,0-8.72-0.259-12.975-0.762

	c24.071,15.433,52.662,24.438,83.378,24.438c100.047,0,154.757-82.881,154.757-154.758c0-2.358-0.053-4.704-0.157-7.037

	C328.846,147.534,338.066,137.955,345.358,127.048z" /> </symbol>
  <symbol viewBox="0 0 100 100" id="angularjs">
    <title>angularjs</title>
    <path d="M 49.572215,5.515 7,20.497239 13.727077,76.273901 49.617519,96 85.69279,76.006177 92.417811,20.231574 49.572215,5.515 z m 0,0" id="angularjs-path22" fill="#b2b2b2" />
    <path d="M 88.171818,23.455587 49.473358,10.258861 V 91.28703 L 81.904503,73.33872 88.171818,23.455587 z m 0,0" id="angularjs-path24" fill="#b52e31" />
    <path d="M 11.777326,23.69345 17.541627,73.577098 49.472328,91.28703 V 10.257316 L 11.777326,23.69345 z m 0,0" id="angularjs-path26" fill="#e23237" />
    <path d="M 58.443134,50.561083 49.543385,31.976414 41.708856,50.561083 h 16.734278 z m 3.392891,7.814963 H 38.245429 L 32.967673,71.576892 23.150961,71.75812 49.473358,13.201249 76.713237,71.757605 H 67.614223 L 61.836025,58.376046 z m 0,0" id="angularjs-path28"
    fill="#f2f2f2" />
    <path d="m 49.473358,13.201249 0.07002,18.775165 8.890482,18.599086 h -8.940946 l -0.02005,7.788189 12.362656,0.01185 5.77821,13.384132 9.393504,0.174536 -27.533866,-58.732954 z m 0,0" id="angularjs-path30" fill="#b2b2b2" />
  </symbol>
  <symbol viewBox="0 0 722 897" id="backbone">
    <title>BackBone.JS</title>
    <description>Created with Sketch (http://www.bohemiancoding.com/sketch)</description>
    <g id="backbone-Page 1" fill="#D8D8D8" fill-rule="evenodd">
      <g id="backbone-BackBone.JS">
        <path d="M5.68434189e-14,0 L5.68434189e-14,485 L361,690.785021 L361,550.902766 L119.496094,413.235491 L119.496094,197 L361,334.667275 L361,205.785021 L5.68434189e-14,0 Z M5.68434189e-14,0" id="backbone-Path" stroke="rgb(132,132,132)" stroke-width="1"
        fill="#002A41" />
        <path d="M722,0 L722,485 L361,690.785021 L361,550.902766 L602.503906,413.235491 L602.503906,197 L361,334.667275 L361,205.785021 L722,0 Z M722,0" id="backbone-Path" stroke="rgb(132,132,132)" stroke-width="1" fill="#0071B5" />
        <path d="M0,896.785021 L0,411.785021 L361,206 L361,345.882254 L119.496094,483.54953 L119.496094,688.785021 L361,551.117746 L361,691 L0,896.785021 Z M0,896.785021" id="backbone-Path" stroke="rgb(132,132,132)" stroke-width="1" fill="#0071B5" />
        <path d="M722,896.785021 L722,411.785021 L361,206 L361,345.882254 L602.503906,483.54953 L602.503906,688.785021 L361,551.117746 L361,691 L722,896.785021 Z M722,896.785021" id="backbone-Path" stroke="rgb(132,132,132)" stroke-width="1" fill="#002A41"
        /> </g>
    </g>
  </symbol>
  <symbol viewBox="0 0 360 334.99" id="grunt">
    <title>grunt</title>
    <g id="grunt-Layer_1_1_">
      <g>
        <path fill="#FBA919" d="M67.892,81.419c0,0,5.737,22.127,6.555,29.504c0.821,7.375-14.751,23.765-14.751,31.961
			c0,8.196,3.274,22.947,21.306,30.324c18.032,7.376,20.488,26.224,20.488,37.7c0,11.473-6.555,33.598-6.555,33.598
			s-4.096,54.908,18.029,64.742c22.125,9.833,17.21,9.833,22.125,9.833c4.916,0,40.977,14.755,62.283,9.018
			c21.308-5.737,27.041-12.292,27.041-12.292s21.31,1.637,27.865-17.214c6.559-18.847,10.654-58.183,8.195-76.214
			c-2.459-18.032-5.736-41.794,9.014-49.991c14.755-8.196,30.324-18.027,27.865-26.224c-2.459-8.196-15.568-19.67-15.568-19.67
			s-3.279-20.486-0.822-25.404c2.457-4.917,17.21-17.213,9.014-26.226c-8.191-9.014-22.947-9.014-22.947-9.014l-18.847,1.637
			c0,0-31.961-28.682-73.757-27.043c-41.794,1.639-68.021,27.043-68.021,27.043s-13.93-4.917-26.224,0
			C67.886,72.406,65.435,67.486,67.892,81.419z" />
        <path fill="#E78724" d="M142.775,203.437c0,0-16.229,24.815-28.133,42.425c-1.842,2.724,11.904,2.913,11.904,2.913
			L142.775,203.437z" />
        <path fill="#E78724" d="M150.502,151.989c0,0-4.892,12.205-7.572,18.675c-2.909,7.034-14,10.533-14,10.533
			s5.749-6.03,5.749-21.306c0-6.409,8.274-8.957,8.274-8.957L150.502,151.989z" />
        <path fill="#E78724" d="M145.56,158.89c0,0-10.023,11.931-28.633,5.249c-18.614-6.68-20.522-30.545-20.522-37.227
			c0-6.682,35.317,6.682,40.091,9.546S150.332,150.775,145.56,158.89z" />
        <path fill="#E78724" d="M75.261,31.399c0,0,17.18-3.343,28.633,5.726c11.458,9.067,14.794,16.228,14.794,16.228L99.383,68.656
			c0,0-9.328-4.325-12.192-16.735C84.328,39.512,86.237,33.786,75.261,31.399z" />
        <path fill="#E78724" d="M140.549,124.427c-7.397-10.5-19.587-15.08-29.32-15.839c-16.596-1.298-24.475,4.569-24.475,4.569
			s27.18,1.151,35.014,11.44c14.584,19.15,35.86,20.706,39.262,16.5c-3.934,0.196-8.262-1.753-12.894-6.133
			C145.242,132.224,142.896,127.76,140.549,124.427z" />
        <path fill="#E78724" d="M94.666,161.554c0,0-30.157-10.367-24.425-20.865c5.726-10.501,1.168-16.222,1.168-16.222
			s-16.839,12.57-12.548,25.932c2.637,8.202,7.061,14.14,31.354,25.525c11.652,21.643,2.406,60.6,2.96,60.783
			c0.923,0.307,16.36-7.63,15.306-44.077C108.16,181.438,107.265,166.159,94.666,161.554z" />
        <path fill="#E78724" d="M134.184,50.074c-12.645,6.424-29.968,15.37-29.968,15.37l6.818,3.411
			c-0.651,1.054-0.965,1.683-0.965,1.683l6.998,3.182c0,0,17.083,12.375,27.55,20.331c-3.49-10.746-13.734-27.628-13.734-27.628
			S127.98,58.666,134.184,50.074z" />
        <path fill="#E78724" d="M176.191,311.934c-38.866,0-52.031-19.731-52.031-19.731l6.074,14.791
			c2.296,6.399,26.788,26.311,45.898,26.311" />
        <path fill="#E78724" d="M128.419,278.871c0,0,3.576,21.854,17.894,21.854c12.167,0,15.752-18.46,15.752-22.275L128.419,278.871z" />
        <path fill="#E78724" d="M104.592,245.912c1.272-3.502,5.726-17.66,7.157-30.545c1.715-15.432,1.09-38.003,1.09-38.003
			s-3.82,14.795-7.161,17.186c-3.339,2.385-9.545,18.61-9.545,18.61s-3.324,24.156-4.906,32.275
			C95.605,246.312,99.291,243.732,104.592,245.912z" />
        <path fill="#E78724" d="M70.016,150.162c0,0,8.111-2.866,10.5-20.522c2.385-17.66-2.866-32.932-2.866-32.932
			s0.477,24.34-2.385,29.114c-2.866,4.771-5.249,6.203-8.592,12.409C63.33,144.438,68.104,148.252,70.016,150.162z" />
        <path fill="#87CCEE" d="M113.063,69.061" />
        <path fill="#FDC168" d="M79.701,35.576l-1.656-1.049C73.162,34.692,79.701,35.576,79.701,35.576z" />
        <path fill="#FBA919" d="M140.786,44.846c0,0-7.634-1.272-11.454-6.998c-3.82-5.728-14.636-17.184-31.879-17.312
			c-17.242-0.129-34.301,4.583-34.301,4.583l14.891,9.409c1.575-0.051,4.329-0.03,8.883,0.122
			c18.688,0.621,21.565,19.106,21.565,19.106l65.862-9.069" />
        <path fill="#FFFFFF" d="M147.151,146.942c0,0-8.91,8.91-22.593,6.044c-13.683-2.862-21.957-8.908-22.593-19.409
			c-0.636-10.5,2.866-14.636,2.866-14.636s15.271,4.776,22.593,11.14C134.742,136.443,140.15,146.625,147.151,146.942z" />
        <path fill="#C9C9C9" d="M136.368,143.759c0,0-7.727,3.53-16.364,0.655c-11.306-3.771-12.059-15.529-12.059-15.529
			s-6.936,20.354,12.51,24.272c15.597,3.142,24.821-5.896,24.821-5.896L136.368,143.759z" />
        <path fill="#463014" d="M145.249,257.84" />
        <path fill="#463014" d="M141.859,40.528c-0.831-17.456,13.479-31.359,18.437-31.951c0.274,2.958-0.276,14.496,4.681,18.044
			C166.42,17.197,171.3,6.807,190.57,0c-4.127,10.946-0.551,20.115,1.152,24.365c13.159-11.944,22.025-9.97,22.025-9.97
			s-9.143,15.777-5.567,26.129C181.764,38.453,141.988,43.331,141.859,40.528z" />
        <path fill="#463014" d="M85.857,67.117c-6.303-5.229-1.605-10.082-2.103-16.023c-0.271-3.161-0.521-6.144-1.563-7.789
			c-5.8-9.159-19.483-11.938-19.62-11.967l-6.422-1.258l4.251-4.973c0.551-0.644,18.009-17.301,45.025-8.579
			c18.898,6.095,32.888,26.763,33.409,27.598l-9.476,4.456c-0.111-0.176-11.171-19.603-27.384-24.831
			c-13.106-4.229-25.185-0.206-30.359,2.431c5.5,2.196,12.691,6.195,17.024,13.036c2.044,3.231,2.389,7.299,2.722,11.238
			c0.439,5.215,0.85,10.138,4.688,13.326L85.857,67.117z" />
        <path fill="#463014" d="M69.023,143.45c0,0,7.941-9.847,10.293-29.008c0.924-7.547-0.717-22.433-3.343-28.16
			c0.477,14.079-3.102,28.16-3.102,28.16S70.458,140.586,69.023,143.45z" />
        <path fill="#463014" d="M110.896,57.172c-0.004-0.021-2.548-11.138-9.601-16.75c-9.949-7.914-22.097-3.704-22.214-3.667
			l-1.764-5.449c0.588-0.191,14.473-4.566,27.269,4.429c12.873,9.046,14.418,17.246,14.552,18.152L110.896,57.172z" />
        <path fill="#463014" d="M93.964,136.388c0,0-4.166-5.964-3.417-12.523c0.373-3.239,1.874-6.564,4.554-7.744
			c4.98-2.188,7.187,3.457,7.187,3.457S95.279,121.308,93.964,136.388z" />
        <path fill="#463014" d="M145.249,257.84" />
        <path fill="#463014" d="M139.707,145.478c0.174,0.325,0.263,0.507,0.263,0.507s-12.994,9.752-26.311-0.144
			c-7.128-5.302-6.455-18.417-4.271-23.979c5.679,1.287,10.496,3.607,14.522,6.316c-5.088-4.541-9.542-7.884-9.53-7.961
			l-5.783-1.637l-11.24-3.854c-0.144,0.857-4.244,20.074,7.59,33.168c5.245,5.806,29.835,18.808,41.51-3.424L139.707,145.478z" />
        <path fill="#463014" d="M138.49,146.907c7.316,11.135,25.775,4.772,25.457-7c0,0-12.334,6.807-23.231-5.726
			c-6.362-7.317-26.748-27.492-54.394-20.787C105.414,117.592,130.689,135.035,138.49,146.907z" />
        <g>
          <path fill="#463014" d="M145.249,257.84" /> </g>
        <path fill="#463014" d="M83.739,178.333c1.76,1.017,7.967,7.445,7.971,17.059c0,4.821-0.48,29.04-2.866,43.836
			c3.589,2.332,6.089,2.828,9.663,5.205c1.789-17.136,3.072-41.972,2.474-51.998c-0.684-11.429-6.803-19.099-12.478-22.37
			c-1.777-1.022-3.634-2.027-5.504-3.038c-9.72-5.252-19.771-10.685-19.771-19.962c0-7.257,2.821-9.527,5.808-11.933l0.322-0.261
			c1.982-1.601,4.225-3.417,5.554-6.399c3.626-8.153,4.219-28.921,0-34.193c-2.103-2.627-7.738-11.461-6.118-17.397
			c0.617-2.266,2.044-3.945,4.367-5.135c2.458-1.259,5.779-1.897,9.867-1.897c8.03,0,16.936,2.444,21.531,3.899
			c16.419,5.204,36.231,20.208,41.91,24.683c0.163,0.125,0.259,0.198,0.276,0.21l3.634,2.527l-2.273-3.803
			c-0.14-0.237-14.534-23.905-40.271-32.583c-5.007-1.688-14.844-4.521-24.511-4.521c-5.756,0-10.64,1.005-14.507,2.985
			c-4.713,2.411-7.905,6.258-9.231,11.121c-3.25,11.921,7.335,25.194,7.696,25.618c1.234,2.203,1.757,18.206-1.094,24.611
			c-0.392,0.884-1.467,1.753-2.828,2.851c-0.426,0.345-0.903,0.703-1.408,1.086c-4.022,3.036-10.104,7.623-10.104,18.196
			c0,14.467,14.662,22.311,26.445,28.618C80.226,176.388,82.071,177.372,83.739,178.333z" />
        <g>
          <g>
            <path fill="#463014" d="M85.857,67.117c-6.303-5.229-1.605-10.082-2.103-16.023c-0.271-3.161-0.521-6.144-1.563-7.789
					c-5.8-9.159-19.483-11.938-19.62-11.967l-6.422-1.258l4.251-4.973c0.551-0.644,18.009-17.301,45.025-8.579
					c18.898,6.095,32.888,26.763,33.409,27.598l-9.476,4.456c-0.111-0.176-11.171-19.603-27.384-24.831
					c-13.106-4.229-25.185-0.206-30.359,2.431c5.5,2.196,12.691,6.195,17.024,13.036c2.044,3.231,2.389,7.299,2.722,11.238
					c0.439,5.215,0.85,10.138,4.688,13.326L85.857,67.117z" /> </g>
          <g>
            <path fill="#463014" d="M85.652,68.188l-0.407-0.337c-4.674-3.879-3.845-7.7-3.042-11.397c0.365-1.706,0.75-3.47,0.594-5.279
					c-0.255-3.042-0.5-5.912-1.416-7.361c-5.523-8.72-18.87-11.514-19.002-11.541L54.358,30.7l5.317-6.216
					c0.097-0.116,11.306-11.431,30.29-11.431c5.175,0,10.477,0.861,15.752,2.565c19.724,6.36,33.795,27.789,33.928,28.001
					l0.569,0.91l-11.209,5.272l-0.45-0.714c-1.206-2.056-11.834-19.583-26.869-24.433c-3.693-1.192-7.583-1.794-11.56-1.794
					c-7.203,0-13.044,1.963-16.152,3.281c5.194,2.339,11.493,6.276,15.479,12.562c2.167,3.424,2.518,7.609,2.862,11.652
					c0.422,5.028,0.821,9.756,4.348,12.684l1.331,1.104L85.652,68.188z" /> </g>
        </g>
        <g>
          <g>
            <path fill="#463014" d="M110.896,57.172c-0.004-0.021-2.548-11.138-9.601-16.75c-9.949-7.914-22.097-3.704-22.214-3.667
					l-1.764-5.449c0.588-0.191,14.473-4.566,27.269,4.429c12.873,9.046,14.418,17.246,14.552,18.152L110.896,57.172z" /> </g>
          <g>
            <path fill="#463014" d="M110.212,58.472l-0.248-1.094c-0.026-0.107-2.521-10.844-9.266-16.207
					c-3.844-3.061-8.48-4.615-13.771-4.615c-4.13,0-7.199,0.986-7.534,1.102l-0.912,0.303l-2.366-7.269l0.907-0.293
					c0.407-0.129,4.092-1.278,9.305-1.278c6.877,0,13.379,2.018,18.811,5.832c13.195,9.273,14.806,17.848,14.944,18.794l0.116,0.748
					L110.212,58.472z M86.928,34.65c5.652,0,10.829,1.738,14.961,5.024c5.989,4.77,8.806,13.191,9.658,16.21l6.492-2.587
					c-0.588-2.292-3.176-9.171-14-16.78c-5.179-3.64-11.136-5.484-17.711-5.484c-3.608,0-6.411,0.574-7.796,0.924l1.171,3.619
					C81.061,35.211,83.674,34.65,86.928,34.65z" /> </g>
        </g>
        <path fill="#463014" d="M145.715,295.482L145.715,295.482c-2.82,0-5.698-1.023-7.693-2.75c-1.527-1.316-6.691-6.059-8.968-11.87
			c-0.85-2.173-0.659-3.911,0.574-5.162c0.85-0.857,2.614-1.882,6.195-1.882l2.548-0.004c3.036-0.003,8.148-0.003,12.517-0.003
			h4.189c2.724,0,4.677,0.589,5.8,1.737c1.442,1.482,0.98,3.367,0.577,4.359c-0.702,1.738-3.607,7.394-8.525,12.652
			C151.168,294.443,148.605,295.482,145.715,295.482z" />
        <path fill="#463014" d="M148.671,147.562l-10.182-0.655c0,0,2.603,4.588,4.289,10.522c1.904,6.712-1.741,16.521-1.741,16.521
			S154.613,158.58,148.671,147.562z" />
        <g>
          <path fill="#463014" d="M135.961,322.367c-36.239-2.785-48.989-37.028-48.989-44.16l9.464,0.004l-4.732-0.004h4.732
				c0.047,3.083,9.678,32.375,40.25,34.726L135.961,322.367z" /> </g>
        <path fill="#FFFFFF" d="M125.777,261.016c-0.566-3.273-0.625-6.377,0.066-9.427c-2.754-2.07-7.696-2.839-11.404-4.041
			c-3.032-1.919-18.548,1.967-29.805-11.656c-14.104-17.059-11.136-27.244-11.136-27.244c-3.616,4.018-7.121,2.487-12.633,21.221
			c-5.52,18.738,2.591,31.801,17.708,44.915c7.142,6.195,17.238,8.747,25.922,9.724c-2.909-2.921,4.969-3.213,10.399-5.245
			c-0.433-4.384,0.292-8.64,3.561-12.067c1.971-2.066,4.507-3.301,7.138-4.285c0.147-0.34,0.271-0.654,0.411-0.98
			C125.917,261.633,125.832,261.332,125.777,261.016z" />
        <path fill="#C9C9C9" d="M114.821,279.149c-0.314-0.92-0.551-1.858-0.784-2.802c-0.251-1.031-1.501-3.952,0.04-0.617
			c-0.396-0.854-0.655-1.734-0.846-2.621c-24.482-0.031-45.781-16.84-41.666-52.179c-3.205-4.255-7.693,8.58-7.693,8.58
			s-12.256,35.588,19.398,49.381c10.547,4.6,19.868,7.897,22.067,6.566c4.581,0.931,8.716-2.263,10.267-4.363
			C115.313,280.449,115.048,279.803,114.821,279.149z" />
        <path fill="#463014" d="M125.336,255.892c0.038-2.983,0.647-5.872,2.089-8.751c0.101-0.198,0.218-0.388,0.326-0.581
			c-9.421-0.081-20.271-0.983-29.51-4.681c-10.155-4.062-22.858-17.959-25.041-34.287c0,0-19.125,14.758-13.505,46.346
			c5.275,29.662,30.096,39.332,58.404,40.968c0.015-0.192-3.184-6.8-2.173-10.845c-16.074,1.168-34.049-5.042-42.726-19.32
			c-7.944-13.068-5.716-35.379-2.451-38.648C78.713,251.222,107.369,256.33,125.336,255.892z" />
        <path fill="#463014" d="M176.191,294.839" />
        <path fill="#463014" d="M128.302,237.902c-5.094,14.949-15.499,27.047-15.499,27.047s14.313-0.651,15.103-3.184
			c0.585-1.867,12.924-30.752,17.66-64.589C141.111,204.495,128.738,236.622,128.302,237.902z" />
        <path fill="#E78724" d="M209.393,203.437c0,0,16.225,24.815,28.133,42.425c1.842,2.724-11.908,2.913-11.908,2.913L209.393,203.437
			z" />
        <path fill="#E78724" d="M201.664,151.989c0,0,4.893,12.205,7.569,18.675c2.909,7.034,13.999,10.533,13.999,10.533
			s-5.748-6.03-5.748-21.306c0-6.409-8.273-8.957-8.273-8.957L201.664,151.989z" />
        <path fill="#E78724" d="M206.605,158.89c0,0,10.023,11.931,28.638,5.249s20.522-30.545,20.522-37.227
			c0-6.682-35.317,6.682-40.091,9.546C210.9,139.322,201.834,150.775,206.605,158.89z" />
        <path fill="#E78724" d="M276.906,31.399c0,0-17.18-3.343-28.637,5.726c-11.453,9.067-14.795,16.228-14.795,16.228l19.306,15.302
			c0,0,9.332-4.325,12.196-16.735C267.838,39.512,265.93,33.786,276.906,31.399z" />
        <path fill="#E78724" d="M211.618,124.427c7.397-10.5,19.583-15.08,29.32-15.839c16.597-1.298,24.472,4.569,24.472,4.569
			s-27.18,1.151-35.015,11.44c-14.585,19.15-35.854,20.706-39.256,16.5c3.933,0.196,8.263-1.753,12.892-6.133
			C206.924,132.224,209.271,127.76,211.618,124.427z" />
        <path fill="#E78724" d="M257.501,161.554c0,0,30.153-10.367,24.426-20.865c-5.726-10.501-1.172-16.222-1.172-16.222
			s16.843,12.57,12.548,25.932c-2.637,8.202-7.061,14.14-31.354,25.525c-11.652,21.643-2.406,60.6-2.957,60.783
			c-0.924,0.307-16.359-7.63-15.305-44.077C244.007,181.438,244.902,166.159,257.501,161.554z" />
        <path fill="#E78724" d="M217.984,50.074c12.641,6.424,29.967,15.37,29.967,15.37l-6.817,3.411
			c0.651,1.054,0.966,1.683,0.966,1.683l-6.998,3.182c0,0-17.084,12.375-27.551,20.331c3.486-10.746,13.73-27.628,13.73-27.628
			S224.189,58.666,217.984,50.074z" />
        <path fill="#E78724" d="M175.978,311.934c38.86,0,52.025-19.731,52.025-19.731l-6.07,14.791
			c-2.296,6.399-26.79,26.311-45.896,26.311" />
        <path fill="#E78724" d="M223.748,278.871c0,0-3.58,21.854-17.894,21.854c-12.165,0-15.751-18.46-15.751-22.275L223.748,278.871z" />
        <path fill="#E78724" d="M247.575,245.912c-1.272-3.502-5.726-17.66-7.161-30.545c-1.715-15.432-1.086-38.003-1.086-38.003
			s3.819,14.795,7.156,17.186c3.344,2.385,9.546,18.61,9.546,18.61s3.324,24.156,4.906,32.275
			C256.559,246.312,252.877,243.732,247.575,245.912z" />
        <path fill="#E78724" d="M282.154,150.162c0,0-8.115-2.866-10.5-20.522c-2.385-17.66,2.865-32.932,2.865-32.932
			s-0.48,24.34,2.385,29.114c2.866,4.773,5.25,6.203,8.592,12.409C288.834,144.437,284.062,148.252,282.154,150.162z" />
        <path fill="#87CCEE" d="M239.106,69.061" />
        <path fill="#FDC168" d="M272.465,35.576l1.659-1.049C279.008,34.692,272.465,35.576,272.465,35.576z" />
        <path fill="#FBA919" d="M211.378,44.846c0,0,7.638-1.272,11.454-6.998c3.819-5.728,14.639-17.184,31.883-17.312
			c17.242-0.129,34.301,4.583,34.301,4.583l-14.892,9.409c-1.575-0.051-4.329-0.03-8.887,0.122
			c-18.685,0.621-21.562,19.106-21.562,19.106l-65.86-9.069" />
        <path fill="#FFFFFF" d="M205.016,146.942c0,0,8.91,8.91,22.59,6.044c13.684-2.862,21.957-8.908,22.594-19.409
			c0.635-10.5-2.863-14.636-2.863-14.636s-15.275,4.776-22.593,11.14S212.018,146.625,205.016,146.942z" />
        <path fill="#C9C9C9" d="M215.796,143.759c0,0,7.73,3.53,16.364,0.655c11.309-3.771,12.062-15.529,12.062-15.529
			s6.932,20.354-12.514,24.272c-15.594,3.142-24.82-5.896-24.82-5.896L215.796,143.759z" />
        <path fill="#463014" d="M206.916,257.84" />
        <path fill="#463014" d="M266.309,67.117c6.303-5.229,1.609-10.082,2.107-16.023c0.266-3.161,0.516-6.144,1.559-7.789
			c5.801-9.159,19.483-11.938,19.624-11.967l6.423-1.258l-4.252-4.973c-0.551-0.644-18.009-17.301-45.029-8.579
			c-18.895,6.095-32.885,26.763-33.405,27.598l9.472,4.456c0.115-0.176,11.176-19.603,27.389-24.831
			c13.105-4.229,25.184-0.206,30.355,2.431c-5.497,2.196-12.691,6.195-17.024,13.036c-2.044,3.231-2.386,7.299-2.718,11.238
			c-0.439,5.215-0.854,10.138-4.693,13.326L266.309,67.117z" />
        <path fill="#463014" d="M283.14,143.45c0,0-7.937-9.847-10.289-29.008c-0.924-7.547,0.714-22.433,3.339-28.16
			c-0.477,14.079,3.105,28.16,3.105,28.16S281.709,140.586,283.14,143.45z" />
        <path fill="#463014" d="M241.271,57.172c0.004-0.021,2.548-11.138,9.602-16.75c9.948-7.914,22.097-3.704,22.21-3.667l1.769-5.449
			c-0.59-0.191-14.473-4.566-27.273,4.429c-12.873,9.046-14.414,17.246-14.552,18.152L241.271,57.172z" />
        <path fill="#463014" d="M258.203,136.388c0,0,4.166-5.964,3.413-12.523c-0.369-3.239-1.87-6.564-4.55-7.744
			c-4.98-2.188-7.188,3.457-7.188,3.457S256.888,121.308,258.203,136.388z" />
        <path fill="#463014" d="M206.916,257.84" />
        <path fill="#463014" d="M212.461,145.478c-0.174,0.325-0.264,0.507-0.264,0.507s12.99,9.752,26.307-0.144
			c7.133-5.302,6.459-18.417,4.271-23.979c-5.676,1.287-10.492,3.607-14.52,6.316c5.089-4.541,9.543-7.884,9.527-7.961l5.787-1.637
			l11.239-3.852c0.144,0.857,4.243,20.074-7.595,33.168c-5.244,5.806-29.834,18.808-41.506-3.424L212.461,145.478z" />
        <path fill="#463014" d="M213.674,146.907c-7.316,11.135-25.77,4.772-25.451-7c0,0,12.33,6.807,23.227-5.726
			c6.362-7.317,26.752-27.492,54.397-20.787C246.756,117.592,221.479,135.035,213.674,146.907z" />
        <g>
          <path fill="#463014" d="M206.916,257.84" /> </g>
        <path fill="#463014" d="M268.431,178.333c-1.761,1.017-7.971,7.445-7.971,17.059c-0.004,4.821,0.477,29.04,2.866,43.836
			c-3.59,2.332-6.09,2.828-9.664,5.205c-1.789-17.136-3.076-41.972-2.474-51.998c0.683-11.429,6.8-19.099,12.474-22.37
			c1.777-1.022,3.635-2.027,5.509-3.038c9.72-5.252,19.771-10.685,19.771-19.962c0-7.257-2.824-9.527-5.811-11.933l-0.318-0.261
			c-1.982-1.601-4.229-3.417-5.554-6.399c-3.627-8.153-4.222-28.921-0.004-34.193c2.103-2.627,7.742-11.461,6.122-17.397
			c-0.621-2.266-2.049-3.945-4.371-5.135c-2.459-1.259-5.775-1.897-9.867-1.897c-8.025,0-16.936,2.444-21.527,3.899
			c-16.419,5.204-36.231,20.208-41.914,24.683c-0.162,0.125-0.256,0.198-0.274,0.21l-3.636,2.527l2.273-3.803
			c0.144-0.237,14.535-23.905,40.271-32.583c5.008-1.688,14.844-4.521,24.512-4.521c5.756,0,10.635,1.005,14.506,2.985
			c4.714,2.411,7.904,6.258,9.232,11.121c3.25,11.921-7.336,25.194-7.697,25.618c-1.234,2.203-1.756,18.206,1.091,24.611
			c0.392,0.884,1.467,1.753,2.831,2.851c0.426,0.345,0.899,0.703,1.408,1.086c4.023,3.036,10.102,7.623,10.102,18.196
			c0,14.467-14.662,22.311-26.441,28.618C271.941,176.388,270.094,177.372,268.431,178.333z" />
        <path fill="#463014" d="M250.94,65.415c-2.332-3.95-8.296-11.577-22.042-18.279c-15.34-7.477-33.094-11.272-52.777-11.281v-0.004
			c0,0-0.026,0-0.038,0c0,0-0.026,0-0.038,0v0.002c-19.686,0.01-37.443,3.805-52.779,11.281
			c-13.746,6.703-19.708,14.329-22.042,18.279l-1.001,1.325l11.771,2.62l0.373-0.471l0.197-0.432
			c0.182-0.778,1.76-4.978,14.884-11.378c14.03-6.843,30.394-10.312,48.633-10.318c18.241,0.006,34.598,3.475,48.627,10.318
			c13.125,6.4,14.708,10.6,14.888,11.378l0.196,0.432l0.369,0.471l11.775-2.62L250.94,65.415z" />
        <g>
          <g>
            <path fill="#463014" d="M266.309,67.117c6.303-5.229,1.609-10.082,2.107-16.023c0.266-3.161,0.516-6.144,1.559-7.789
					c5.801-9.159,19.483-11.938,19.624-11.967l6.423-1.258l-4.252-4.973c-0.551-0.644-18.009-17.301-45.029-8.579
					c-18.895,6.095-32.885,26.763-33.405,27.598l9.472,4.456c0.115-0.176,11.176-19.603,27.389-24.831
					c13.105-4.229,25.184-0.206,30.355,2.431c-5.497,2.196-12.691,6.195-17.024,13.036c-2.044,3.231-2.386,7.299-2.718,11.238
					c-0.439,5.215-0.854,10.138-4.693,13.326L266.309,67.117z" /> </g>
          <g>
            <path fill="#463014" d="M254.178,64.147l1.326-1.104c3.53-2.928,3.926-7.657,4.352-12.684c0.342-4.045,0.695-8.23,2.862-11.652
					c3.982-6.284,10.286-10.222,15.479-12.563c-3.109-1.317-8.951-3.28-16.155-3.28c-3.979,0-7.862,0.602-11.556,1.794
					c-15.039,4.85-25.666,22.377-26.869,24.433l-0.451,0.713l-11.209-5.271l0.57-0.91c0.132-0.212,14.199-21.641,33.924-28.001
					c5.275-1.704,10.576-2.564,15.756-2.564c18.983,0,30.193,11.317,30.289,11.431l5.317,6.216l-8.022,1.573
					c-0.133,0.027-13.479,2.819-19.006,11.541c-0.916,1.45-1.156,4.317-1.416,7.361c-0.151,1.81,0.229,3.574,0.599,5.279
					c0.802,3.697,1.63,7.521-3.046,11.397l-0.406,0.337L254.178,64.147z" /> </g>
        </g>
        <g>
          <g>
            <path fill="#463014" d="M241.271,57.172c0.004-0.021,2.548-11.138,9.602-16.75c9.948-7.914,22.097-3.704,22.21-3.667
					l1.769-5.449c-0.59-0.191-14.473-4.566-27.273,4.429c-12.873,9.046-14.414,17.246-14.552,18.152L241.271,57.172z" /> </g>
          <g>
            <path fill="#463014" d="M231.975,54.495l0.111-0.748c0.14-0.946,1.752-9.519,14.945-18.794
					c5.428-3.814,11.932-5.832,18.809-5.832c5.216,0,8.901,1.147,9.309,1.278l0.906,0.293l-2.365,7.269l-0.913-0.303
					c-0.341-0.115-3.409-1.102-7.537-1.102c-5.29,0-9.923,1.552-13.767,4.615c-6.746,5.365-9.243,16.101-9.266,16.207l-0.248,1.092
					L231.975,54.495z M272.465,35.576l1.175-3.619c-1.386-0.352-4.192-0.924-7.8-0.924c-6.574,0-12.533,1.846-17.709,5.484
					c-10.828,7.611-13.416,14.488-14.003,16.78l6.497,2.587c0.85-3.021,3.664-11.442,9.656-16.21
					c4.135-3.286,9.306-5.024,14.958-5.024C268.489,34.65,271.107,35.211,272.465,35.576z" /> </g>
        </g>
        <path fill="#463014" d="M199.242,292.559c-4.917-5.257-7.826-10.914-8.529-12.652c-0.402-0.99-0.86-2.877,0.582-4.359
			c1.124-1.148,3.072-1.737,5.796-1.737h4.192c4.369,0,9.478,0,12.516,0.003l2.548,0.004c3.579,0,5.342,1.024,6.191,1.882
			c1.234,1.249,1.427,2.987,0.577,5.162c-2.277,5.812-7.442,10.555-8.969,11.87c-2,1.727-4.871,2.75-7.691,2.75l0,0
			C203.564,295.482,201.003,294.443,199.242,292.559z" />
        <path fill="#463014" d="M203.498,147.562l10.176-0.655c0,0-2.599,4.588-4.285,10.522c-1.904,6.712,1.741,16.521,1.741,16.521
			S197.553,158.58,203.498,147.562z" />
        <path fill="#E78724" d="M176.085,111.211c-6.489,0-14.95-0.178-21.298-4.74c0,0,8.312,14.571,21.287,14.571l0.011-1.844
			l0.011,1.844c12.976,0,21.287-14.571,21.287-14.571C191.035,111.033,182.568,111.211,176.085,111.211z" />
        <path fill="#463014" d="M193.952,111.141c-6.509,3.939-12.322,5.304-17.867,5.425c-5.546-0.121-11.357-1.486-17.867-5.425
			c0,0,9.479,11.567,17.819,11.656v0.007c0.015,0,0.03-0.004,0.047-0.004c0.015,0,0.03,0.004,0.047,0.004v-0.007
			C184.469,122.708,193.952,111.141,193.952,111.141z" />
        <g>
          <path fill="#463014" d="M216.207,322.367l-0.726-9.435c30.565-2.351,40.196-31.643,40.246-34.726h9.464
				C265.195,285.337,252.441,319.582,216.207,322.367z" /> </g>
        <path fill="#FFFFFF" d="M226.389,261.016c0.569-3.273,0.624-6.377-0.066-9.427c2.758-2.07,7.696-2.839,11.404-4.041
			c3.032-1.919,18.552,1.967,29.809-11.656c14.104-17.059,11.132-27.244,11.132-27.244c3.619,4.018,7.121,2.487,12.637,21.221
			c5.52,18.738-2.595,31.801-17.712,44.915c-7.141,6.195-17.238,8.747-25.922,9.724c2.909-2.921-4.969-3.213-10.396-5.245
			c0.434-4.384-0.295-8.64-3.563-12.067c-1.967-2.066-4.507-3.301-7.136-4.285c-0.148-0.34-0.275-0.654-0.411-0.98
			C226.252,261.633,226.334,261.332,226.389,261.016z" />
        <path fill="#C9C9C9" d="M237.342,279.149c0.318-0.92,0.551-1.858,0.784-2.802c0.255-1.031,1.505-3.952-0.038-0.617
			c0.396-0.854,0.655-1.734,0.846-2.621c24.482-0.031,45.781-16.84,41.662-52.179c3.205-4.255,7.696,8.58,7.696,8.58
			s12.257,35.588-19.397,49.381c-10.547,4.6-19.867,7.897-22.067,6.566c-4.585,0.931-8.72-2.263-10.267-4.363
			C236.85,280.449,237.121,279.803,237.342,279.149z" />
        <path fill="#463014" d="M226.827,255.892c-0.034-2.983-0.647-5.872-2.085-8.751c-0.102-0.198-0.219-0.388-0.326-0.581
			c9.42-0.081,20.271-0.983,29.51-4.681c10.154-4.062,22.857-17.959,25.041-34.287c0,0,19.125,14.758,13.505,46.346
			c-5.279,29.662-30.097,39.332-58.404,40.968c-0.015-0.192,3.185-6.8,2.173-10.845c16.07,1.168,34.045-5.042,42.727-19.32
			c7.939-13.068,5.712-35.379,2.447-38.648C273.454,251.222,244.795,256.33,226.827,255.892z" />
        <g>
          <path fill="#463014" d="M175.978,294.839" />
          <path fill="#463014" d="M238.258,263.332c-3.382-3.656-9.6-8.014-23.937-8.014c0,0-27.182-0.016-38.188-0.023l0,0
				c-0.015,0-0.034,0-0.047,0c0,0-0.034,0-0.047,0l0,0c-11.005,0.008-38.194,0.023-38.194,0.023
				c-14.333,0-20.551,4.359-23.935,8.014c-4.929,5.321-5.702,12.723-2.292,21.975c9.061,24.626,21.794,49.645,64.419,49.68v0.004
				c0.016,0,0.03-0.004,0.047-0.004c0.015,0,0.03,0.004,0.047,0.004v-0.004c42.621-0.037,55.354-25.054,64.418-49.68
				C243.959,276.055,243.184,268.653,238.258,263.332z M231.622,283.58c-4.317,12.366-15.919,42.298-55.539,42.35
				c-39.625-0.052-51.223-29.983-55.54-42.35c-2.389-6.861-2.207-11.938,0.559-15.092c1.889-2.156,6.229-4.729,16.12-4.729
				l10.333-0.004c7.623-0.007,17.194-0.015,28.529-0.019c11.331,0.004,20.907,0.012,28.528,0.019l10.329,0.004
				c9.894,0,14.233,2.572,16.123,4.729C233.827,271.645,234.011,276.719,231.622,283.58z" /> </g>
        <path fill="#463014" d="M223.863,237.902c5.094,14.949,15.498,27.047,15.498,27.047s-14.312-0.651-15.103-3.184
			c-0.581-1.867-12.921-30.752-17.657-64.589C211.053,204.495,223.426,236.622,223.863,237.902z" /> </g>
    </g>
  </symbol>
  <symbol viewBox="0 0 150 100" id="handlebars">
    <title>handlebars</title>
    <path d="m 42.305986,10.946014 c 4.242,-2.8440104 9.240005,-4.7670156 14.397,-4.7430101 4.821,-0.021043 9.765012,1.3619949 13.512012,4.4789851 1.920028,1.554012 3.471012,3.504023 4.788002,5.58 2.369999,-3.830962 5.831999,-7.0859886 10.100986,-8.6549848 5.202026,-1.9530027 11.082002,-1.8180001 16.274954,0.096032 4.536,1.6560106 8.50223,4.5419838 12.0991,7.7160058 2.81386,2.483999 5.41813,5.202022 8.31573,7.592979 1.52703,1.239022 3.16801,2.400034 5.04623,3.042024 2.49617,0.851984 5.44817,0.04815 7.23315,-1.875002 1.65289,-1.799999 1.55085,-4.911022 -0.2704,-6.554992 -1.15768,-0.998988 -3.13795,-0.798022 -3.95688,0.533978 -0.7169,1.056017 -0.31494,2.373012 0.24603,3.396016 -1.49074,-1.089013 -2.98514,-2.607004 -2.97893,-4.587004 -0.30907,-2.288997 1.38926,-4.307997 3.42286,-5.109013 3.96932,-1.586985 8.94612,-0.218987 11.45109,3.276 2.40918,3.261028 2.60118,7.54802 2.18125,11.433028 -0.5071,3.689975 -2.57127,7.133964 -5.63101,9.269975 -4.29619,3.066012 -9.74126,4.017017 -14.92213,3.95099 -4.97993,-0.134919 -9.90907,-1.26 -14.52293,-3.11997 -7.71627,-3.102022 -14.937101,-7.38901 -22.905114,-9.867019 -2.642973,-1.025976 -5.453973,-1.58098 -8.28,-1.751969 0.0057,16.619968 -0.02999,33.242958 -0.0028,49.865993 -0.02097,5.538006 0.05096,11.082007 -0.0331,16.616994 -0.04197,-0.645007 -0.08071,-1.290005 -0.09592,-1.931996 0.04816,-21.534009 0.02093,-43.065011 0.01086,-64.599023 -2.129994,0.03309 -4.262974,-0.072 -6.386974,0.072 -2.592,0.248999 -5.169026,0.77999 -7.596,1.73102 -8.102999,2.52 -15.432039,6.914993 -23.294999,10.023005 -6.63902,2.582992 -13.994992,3.782995 -21.042021,2.348972 -3.941973,-0.797977 -7.865973,-2.540983 -10.5269723,-5.645997 -2.2770158,-2.63998 -3.3690268,-6.173974 -3.2610268,-9.635984 -0.126029,-3.266989 0.591028,-6.737994 2.751027,-9.28199 2.0099871,-2.412 5.2469861,-3.636 8.3549991,-3.366025 2.000974,0.09313 4.029001,0.965994 5.265002,2.577026 0.972,1.274974 1.031999,3.020998 0.605999,4.511988 -0.519014,1.341007 -1.59,2.388 -2.754028,3.192013 0.594028,-1.002033 0.954028,-2.325028 0.252,-3.372013 -0.863999,-1.394993 -2.991,-1.536001 -4.115969,-0.390013 -1.386017,1.425018 -1.677017,3.753014 -0.74703,5.498993 1.007999,1.830025 3.093,2.874025 5.111999,3.087033 3.054004,0.263987 5.703028,-1.629012 7.944041,-3.465012 4.637982,-3.992986 8.813982,-8.561993 13.958967,-11.939999 z"
    id="handlebars-path6" fill="#423426" />
    <path d="m 71.399999,25.072975 c 2.124,-0.143999 4.257014,-0.03891 6.387027,-0.072 0.0099,21.534011 0.03618,43.065012 -0.01086,64.599024 0.01493,0.641988 0.05381,1.286988 0.09592,1.931985 0.01493,0.39299 -0.288001,0.690002 -0.507008,0.978003 -0.01086,0.01496 -0.03309,0.042 -0.04492,0.05705 -0.999052,1.637972 -3.489001,1.670952 -4.824,0.449973 -0.906012,-0.870012 -1.122012,-2.213972 -1.104039,-3.414007 0.01086,-14.700005 0.174006,-29.402985 0.05099,-44.102991 -0.03888,-6.81002 -0.04815,-13.620012 -0.04197,-20.427033 z"
    id="handlebars-path8" fill="#bab4b1" />
    <path d="m 77.319025,92.567025 c 0.01086,-0.01496 0.03309,-0.042 0.04493,-0.05705 -0.01212,0.01497 -0.03309,0.04199 -0.04493,0.05705 z" id="handlebars-path10" fill="#423426" /> </symbol>
  <symbol viewBox="0 0 1024 600" id="html5">
    <title>html5</title>
    <g>
      <polygon fill="#E45126" points="53.07,531.97 26,228.35 323.45,228.35 296.352,531.921 174.543,565.69 	" />
      <polygon fill="#F1682B" points="174.725,539.878 273.152,512.591 296.31,253.175 174.725,253.175 	" />
      <polygon fill="#EBEBEB" points="174.725,365.784 125.45,365.784 122.046,327.652 174.725,327.652 174.725,290.413 174.596,290.413 

		81.35,290.413 82.242,300.404 91.394,403.02 174.725,403.02 	" />
      <polygon fill="#EBEBEB" points="174.725,462.491 174.562,462.538 133.09,451.338 130.438,421.641 110.287,421.641 93.058,421.641 

		98.275,480.108 174.553,501.284 174.725,501.235 	" />
      <g>
        <path fill="#020202" d="M53.675,145.838h18.924v18.696H89.91v-18.696h18.925v56.618H89.911v-18.958h-17.31v18.958H53.675V145.838

			L53.675,145.838z" />
        <path fill="#020202" d="M133.719,164.614h-16.66v-18.775h52.252v18.775h-16.667v37.843H133.72L133.719,164.614L133.719,164.614z" />
        <path fill="#020202" d="M177.604,145.838h19.733l12.137,19.894l12.127-19.894h19.739v56.618h-18.846v-28.063l-13.021,20.13h-0.325

			l-13.028-20.13v28.063h-18.517L177.604,145.838L177.604,145.838z" />
        <path fill="#020202" d="M250.758,145.838h18.929v37.903h26.612v18.714h-45.542L250.758,145.838L250.758,145.838z" /> </g>
      <polygon fill="#FFFFFF" points="174.596,365.784 174.596,403.02 220.45,403.02 216.128,451.312 174.596,462.524 174.596,501.267 

		250.936,480.108 251.495,473.817 260.246,375.783 261.154,365.784 251.12,365.784 	" />
      <polygon fill="#FFFFFF" points="174.596,290.413 174.596,313.541 174.596,327.56 174.596,327.652 264.423,327.652 264.423,327.652 

		264.543,327.652 265.29,319.282 266.986,300.404 267.877,290.413 	" /> </g>
    <g>
      <g>
        <polygon fill="#151515" points="933.643,161.385 908.954,161.385 934.629,189.244 934.629,202.504 881.746,202.504 

			881.746,186.979 907.416,186.979 881.746,159.119 881.746,145.838 933.643,145.838 933.643,161.385 		" />
        <polygon fill="#151515" points="871.265,161.385 846.576,161.385 872.25,189.244 872.25,202.504 819.367,202.504 819.367,186.979 

			845.039,186.979 819.367,159.119 819.367,145.838 871.265,145.838 871.265,161.385 		" />
        <polygon fill="#151515" points="809.496,162.016 782.856,162.016 782.856,186.329 809.496,186.329 809.496,202.504 

			763.923,202.504 763.923,145.838 809.496,145.838 		" /> </g>
      <polygon fill="#1673B6" points="727.62,531.994 700.55,228.374 998,228.374 970.903,531.945 849.093,565.715 	" />
      <polygon fill="#35A9DB" points="849.276,539.904 947.703,512.615 970.86,253.2 849.276,253.2 	" />
      <g>
        <polygon fill="#FFFFFF" points="849.275,363.2 898.551,363.2 901.953,325.068 849.275,325.068 849.275,287.829 849.404,287.829 

			942.65,287.829 941.758,297.82 932.605,400.436 849.275,400.436 		" />
        <polygon fill="#EBEBEB" points="849.498,459.907 849.336,459.954 807.863,448.754 805.212,419.057 785.061,419.057 

			767.832,419.057 773.049,477.525 849.326,498.701 849.498,498.652 		" />
        <polygon fill="#FFFFFF" points="895.386,398.859 890.901,448.729 849.369,459.94 849.369,498.682 925.709,477.525 

			926.269,471.234 932.746,398.859 		" />
        <polygon fill="#EBEBEB" points="849.404,287.829 849.404,310.957 849.404,324.976 849.404,325.068 759.576,325.068 

			759.576,325.068 759.457,325.068 758.711,316.698 757.014,297.82 756.123,287.829 		" />
        <polygon fill="#EBEBEB" points="849.275,363.204 849.275,386.333 849.275,400.35 849.275,400.441 808.447,400.441 

			808.447,400.441 808.328,400.441 807.582,392.073 805.885,373.195 804.994,363.204 		" /> </g>
    </g>
    <g>
      <polygon fill="#E4A227" points="390.345,408.754 363.275,105.132 660.725,105.132 633.627,408.705 511.818,442.475 	" />
      <polygon fill="#F0BF26" points="511.75,416.287 610.178,389 633.336,129.583 511.75,129.583 	" />
      <g>
        <polygon fill="#151515" points="564.936,38.071 540.246,38.071 565.922,65.931 565.922,79.191 513.039,79.191 513.039,63.665 

			538.709,63.665 513.039,35.806 513.039,22.525 564.936,22.525 564.936,38.071 		" />
        <path fill="#020202" d="M503.621,22.55v56.617h-45.543V60.453h26.613V22.55h18.928H503.621z" /> </g>
      <polygon fill="#EBEBEB" points="511.693,338.926 511.531,338.973 470.059,327.773 467.406,298.075 447.256,298.075 

		430.027,298.075 435.244,356.543 511.521,377.719 511.693,377.67 	" />
      <polygon fill="#EBEBEB" points="516.709,279.437 516.709,242.2 470.855,242.2 476.232,183.758 516.812,182.677 516.709,143.954 

		442.565,143.954 439.811,171.403 431.059,269.438 430.151,279.437 440.186,279.437 	" />
      <polygon fill="#FFFFFF" points="516.457,182.729 516.62,182.683 557.291,185.132 560.742,223.579 580.893,223.579 598.123,223.579 

		591.609,151.633 516.629,143.937 516.457,143.985 	" />
      <polyline fill="#FFFFFF" points="594.284,182.843 591.093,143.954 512.49,143.954 512.49,168.106 512.49,182.746 512.49,182.843 

		594.284,182.843 	" />
      <polygon fill="#FFFFFF" points="511.564,242.218 511.564,279.454 557.418,279.454 553.096,327.748 511.564,338.959 

		511.564,377.701 587.904,356.543 588.463,350.252 597.215,252.217 598.123,242.218 588.088,242.218 	" />
      <path fill="#FFFFFF" d="M589.5,181.193" /> </g>
  </symbol>
  <symbol viewBox="0 0 100 100" id="jquery">
    <title>jquery</title>
    <style type="text/css" id="jquery-style3" />
    <g transform="matrix(1.0116663,0,0,1.0494765,-21.308997,-24.697198)" id="jquery-g5">
      <g id="jquery-g7">
        <path d="m 37.81,52.32 c -6.67,9.36 -5.99,21.65 -1.09,31.73 0.12,0.24 0.24,0.48 0.36,0.72 0.08,0.15 0.15,0.31 0.23,0.46 0.04,0.09 0.09,0.17 0.15,0.26 0.07,0.16 0.16,0.31 0.25,0.47 0.15,0.28 0.31,0.56 0.47,0.83 0.08,0.15 0.17,0.3 0.26,0.45 0.18,0.29 0.36,0.58 0.54,0.87 0.08,0.13 0.16,0.25 0.24,0.37 0.25,0.39 0.51,0.78 0.79,1.17 0,0.01 0.02,0.02 0.02,0.03 0.04,0.06 0.09,0.12 0.13,0.18 0.24,0.33 0.48,0.66 0.72,0.98 0.1,0.12 0.18,0.23 0.27,0.35 0.22,0.28 0.44,0.56 0.67,0.84 0.08,0.1 0.17,0.21 0.26,0.31 0.3,0.37 0.61,0.73 0.94,1.09 0,0.01 0.01,0.01 0.01,0.02 0.01,0.02 0.03,0.03 0.03,0.04 0.31,0.34 0.63,0.68 0.95,1.02 0.1,0.1 0.21,0.21 0.31,0.31 0.25,0.26 0.5,0.51 0.76,0.76 0.11,0.1 0.21,0.2 0.31,0.3 0.34,0.33 0.68,0.65 1.04,0.97 0.01,0.01 0.01,0.01 0.02,0.02 0.06,0.05 0.12,0.1 0.17,0.15 0.31,0.28 0.63,0.55 0.95,0.82 0.12,0.11 0.25,0.21 0.39,0.32 0.26,0.21 0.52,0.42 0.79,0.63 0.13,0.11 0.27,0.22 0.41,0.33 0.29,0.22 0.6,0.43 0.89,0.65 0.11,0.08 0.21,0.16 0.31,0.24 0.03,0.02 0.06,0.04 0.09,0.06 0.28,0.2 0.57,0.39 0.86,0.58 0.13,0.08 0.25,0.17 0.37,0.25 0.44,0.29 0.89,0.57 1.35,0.85 0.12,0.07 0.24,0.14 0.37,0.22 0.33,0.2 0.67,0.39 1.01,0.58 0.19,0.1 0.38,0.2 0.55,0.3 0.25,0.13 0.48,0.26 0.73,0.39 0.05,0.03 0.11,0.05 0.17,0.08 0.09,0.05 0.19,0.1 0.29,0.15 0.38,0.19 0.76,0.37 1.14,0.55 0.08,0.04 0.16,0.08 0.25,0.11 0.44,0.2 0.89,0.39 1.34,0.58 0.11,0.05 0.22,0.09 0.33,0.13 0.42,0.17 0.85,0.33 1.26,0.49 0.06,0.02 0.11,0.04 0.16,0.06 0.47,0.17 0.94,0.33 1.41,0.48 0.11,0.03 0.22,0.07 0.34,0.1 0.48,0.15 0.95,0.33 1.45,0.43 31.69,6.16 41.2,-18.61 41.2,-18.61 -7.86,10 -21.64,12.51 -34.63,9.4 C 69.91,97.07 69.43,96.91 68.95,96.76 68.83,96.72 68.71,96.68 68.59,96.65 68.13,96.5 67.66,96.34 67.2,96.18 67.14,96.16 67.07,96.14 67.01,96.11 66.6,95.96 66.19,95.8 65.78,95.64 65.66,95.59 65.56,95.55 65.44,95.5 64.99,95.32 64.55,95.13 64.12,94.93 64.02,94.89 63.94,94.85 63.85,94.81 63.47,94.63 63.1,94.46 62.73,94.27 62.62,94.22 62.51,94.17 62.4,94.11 62.11,93.96 61.82,93.8 61.53,93.65 c -0.19,-0.11 -0.38,-0.2 -0.57,-0.31 -0.35,-0.19 -0.69,-0.39 -1.04,-0.59 -0.11,-0.07 -0.23,-0.13 -0.34,-0.2 -0.46,-0.27 -0.91,-0.56 -1.36,-0.84 -0.12,-0.08 -0.24,-0.17 -0.36,-0.25 -0.32,-0.21 -0.64,-0.43 -0.96,-0.65 -0.11,-0.07 -0.21,-0.15 -0.3,-0.22 -0.31,-0.22 -0.61,-0.45 -0.91,-0.67 -0.14,-0.1 -0.27,-0.2 -0.4,-0.31 -0.28,-0.22 -0.55,-0.44 -0.81,-0.66 -0.12,-0.1 -0.25,-0.2 -0.37,-0.3 -0.34,-0.29 -0.68,-0.58 -1.02,-0.88 -0.03,-0.03 -0.07,-0.06 -0.11,-0.1 -0.36,-0.33 -0.71,-0.66 -1.07,-0.99 -0.1,-0.1 -0.2,-0.2 -0.3,-0.3 -0.26,-0.25 -0.52,-0.51 -0.76,-0.77 -0.11,-0.1 -0.21,-0.2 -0.31,-0.31 -0.31,-0.33 -0.63,-0.67 -0.94,-1.01 -0.02,-0.02 -0.03,-0.03 -0.04,-0.05 -0.33,-0.36 -0.64,-0.73 -0.95,-1.11 -0.09,-0.1 -0.17,-0.2 -0.26,-0.3 C 48.13,82.54 47.9,82.25 47.67,81.96 47.58,81.86 47.5,81.75 47.42,81.64 47.14,81.28 46.88,80.93 46.63,80.56 39.51,70.61 37.07,56.97 42.97,45.87"
        id="jquery-path9" fill="#0868ac" />
        <path d="m 58.29,44.6 c -4.83,6.78 -4.68,15.93 -1.06,23.2 0.61,1.22 1.29,2.4 2.06,3.53 0.7,1.03 1.47,2.25 2.42,3.08 0.34,0.38 0.68,0.75 1.04,1.12 0.1,0.09 0.18,0.18 0.28,0.28 0.35,0.35 0.71,0.69 1.08,1.03 0.02,0.01 0.03,0.03 0.04,0.04 0.01,0 0.01,0.01 0.01,0.01 0.4,0.37 0.83,0.72 1.25,1.07 0.1,0.07 0.2,0.15 0.29,0.23 0.43,0.33 0.87,0.67 1.32,0.98 0.01,0.01 0.03,0.02 0.04,0.03 0.2,0.14 0.4,0.28 0.6,0.41 0.1,0.06 0.19,0.13 0.29,0.19 0.32,0.21 0.65,0.42 0.98,0.61 0.05,0.03 0.09,0.06 0.14,0.08 0.29,0.17 0.58,0.33 0.86,0.5 0.1,0.06 0.21,0.11 0.31,0.16 0.2,0.11 0.4,0.22 0.6,0.32 0.03,0.02 0.06,0.03 0.09,0.04 0.42,0.21 0.84,0.42 1.26,0.61 0.09,0.04 0.19,0.08 0.28,0.12 0.34,0.15 0.69,0.29 1.04,0.43 0.15,0.06 0.3,0.12 0.44,0.17 0.31,0.12 0.63,0.23 0.96,0.34 0.14,0.05 0.28,0.1 0.43,0.14 0.45,0.15 0.9,0.33 1.38,0.42 24.47,4.34 30.34,-14.47 30.34,-14.47 -5.19,7.29 -15.1,10.68 -25.62,7.82 -0.46,-0.13 -0.92,-0.27 -1.38,-0.42 -0.14,-0.04 -0.28,-0.09 -0.42,-0.14 -0.32,-0.11 -0.65,-0.23 -0.96,-0.34 -0.15,-0.06 -0.29,-0.11 -0.43,-0.17 -0.35,-0.13 -0.7,-0.28 -1.04,-0.43 -0.09,-0.04 -0.19,-0.08 -0.28,-0.12 -0.43,-0.19 -0.86,-0.4 -1.27,-0.61 -0.22,-0.1 -0.43,-0.22 -0.65,-0.33 -0.12,-0.06 -0.24,-0.13 -0.36,-0.2 -0.28,-0.15 -0.54,-0.31 -0.81,-0.46 -0.06,-0.04 -0.13,-0.08 -0.19,-0.11 -0.33,-0.2 -0.66,-0.4 -0.98,-0.61 -0.09,-0.06 -0.19,-0.13 -0.29,-0.2 -0.22,-0.14 -0.43,-0.29 -0.63,-0.43 -0.45,-0.31 -0.89,-0.65 -1.31,-0.98 -0.1,-0.08 -0.2,-0.16 -0.3,-0.24 C 65.57,67.6 61.97,62.58 60.29,56.92 58.53,51.04 59,44.48 62.23,39.18"
        id="jquery-path11" fill="#0868ac" />
        <path d="m 75.1,38.8 c -2.8,4.12 -3.07,9.23 -1.13,13.78 2.05,4.83 6.24,8.62 11.14,10.42 0.2,0.07 0.4,0.14 0.61,0.21 0.09,0.03 0.18,0.06 0.26,0.09 0.29,0.09 0.58,0.2 0.88,0.25 13.54,2.62 17.21,-6.95 18.18,-8.35 -3.21,4.63 -8.62,5.74 -15.25,4.13 -0.52,-0.13 -1.1,-0.31 -1.6,-0.49 C 87.55,58.61 86.91,58.35 86.28,58.05 85.1,57.49 83.98,56.8 82.94,56.01 77,51.51 73.32,42.92 77.19,35.92"
        id="jquery-path13" fill="#0868ac" />
      </g>
    </g>
  </symbol>
  <symbol viewBox="0 65.326 100 99.999997" id="kiui">
    <title>kiui</title>
    <path d="M 35.931563,80.326774 C 20.348195,80.439333 3.1839314,92.732342 5.1552716,111.02845 c 0.6327999,5.87413 2.7254634,9.26412 7.6722704,11.4929 5.339312,2.4059 8.385661,7.93376 7.412712,16.42626 -1.461041,0.70966 -2.559581,1.60417 -2.813553,2.91068 1.107509,-0.0248 2.197518,-0.0454 3.322086,0.63128 2.990173,1.79962 4.602393,3.97926 6.320495,7.52134 0.252061,0.51947 1.204717,0.41431 1.222365,-0.4476 0.025,-1.23131 -0.272944,-2.53826 -0.768537,-3.91672 -0.434562,-1.20892 0.449857,-1.16121 1.017215,-0.88796 0.941036,0.45298 2.402077,1.37134 4.469154,1.90476 0.79295,0.20462 0.881626,-0.56382 0.768243,-1.01666 -0.274121,-1.09389 -1.618986,-1.5796 -3.605767,-2.79636 -0.708828,-0.43396 -0.136324,-1.41586 0.760007,-1.21445 l 2.975614,0.35121 c 0.493976,0.11096 0.66986,-0.88912 0.129708,-1.14522 -2.08796,-0.98947 -4.249596,-1.46851 -7.921246,-1.13416 -1.708396,-4.25585 -4.384008,-8.96063 -2.305018,-11.87841 1.858691,-2.60862 4.590627,-3.01611 5.756961,6.32436 -0.735598,0.45182 -1.649278,0.73163 -1.666485,1.894 1.058979,-0.41374 1.6481,-0.20344 2.175165,0 2.634139,1.01769 5.215044,3.17404 7.791538,5.42565 0.549857,0.48034 1.237215,-0.24984 1.028095,-0.8775 -0.314414,-0.94438 -1.184273,-1.55008 -2.175166,-2.91079 -0.476327,-0.65371 0.739715,-1.02453 1.600898,-0.99996 2.036632,0.0576 3.365616,1.20236 5.17313,1.63138 0.659272,0.15647 1.432513,-0.28562 1.017217,-1.0059 -0.510593,-0.88493 -1.913988,-1.32688 -2.820613,-1.95059 -0.640741,-0.44048 -0.444857,-1.03716 0.39662,-0.9601 0.574269,0.0523 1.246775,0.33027 2.045313,0.25697 1.462658,-0.13451 1.134861,-1.04254 -0.129855,-1.39112 -2.799435,-0.77133 -5.866373,-0.91777 -9.068459,-0.75984 -6.446674,-1.21546 -4.640334,-12.34464 0,-13.141 4.348713,-0.74631 9.259784,-1.9398 14.69542,-4.67626 4.804158,-0.7895 9.534638,-1.80995 13.667614,-4.9226 7.074468,-2.10415 16.456467,2.34321 30.035704,21.76929 0.577361,0.82615 2.32634,1.44552 1.400596,-0.92359 -2.33722,-5.98058 -10.02597,-13.57216 -13.548645,-19.20838 -3.614883,-5.78409 -2.108842,-8.90621 -5.876079,-13.269518 C 72.173786,94.501429 68.324344,94.381455 63.936508,95.608546 60.486332,96.573288 58.166755,94.57356 56.145267,91.06069 51.826846,83.554322 44.094132,80.268022 35.931563,80.326774 z m 34.617653,20.021886"
    id="kiui-path3" fill="#94d31b" />
  </symbol>
  <symbol viewBox="0 0 150 150" id="marionette">
    <title>marionette</title>
    <g transform="matrix(1.0821691,0,0,1.0821685,-330.81395,-6.25422)" id="marionette-g3">
      <g id="marionette-g5">
        <path d="m 383.359,69.575 10.656,-25.457 c 0.127,-0.306 0.479,-0.45 0.784,-0.322 0.305,0.128 0.45,0.479 0.321,0.786 l -9.389,22.431 -2.372,2.562 z" id="marionette-path7" fill="#939598" />
      </g>
      <path d="m 392.551,56.62 c 0,0 -5.1,6.75 -8.699,10.65 C 380.25,71.171 375,77.321 375,77.321 v 13.751 c 0.038,-0.002 0.073,-0.01 0.111,-0.01 0.87,0 1.575,0.705 1.575,1.574 0,0.871 -0.705,1.576 -1.575,1.576 -0.038,0 -0.073,-0.01 -0.111,-0.012 v 13.873 c 0,0 6.611,-4.537 11.4,-8.926 5.399,-4.949 11.4,-12.677 11.4,-12.677 l -5.249,-29.85 z"
      id="marionette-path9" fill="#931a2b" />
      <polygon points="371.257,31.458 371.208,36.819 351.944,44.613 352.282,39.849 " id="marionette-polygon11" fill="#a7a9ac" />
      <polygon points="398.02,39.662 398.395,44.423 379.034,36.787 378.943,31.427 " id="marionette-polygon13" fill="#bcbec0" />
      <polygon points="375.091,29.763 375.112,35.239 346.932,24.123 347.517,17.858 " id="marionette-polygon15" fill="#bcbec0" />
      <polygon points="347.517,17.858 346.932,24.123 343.195,26.35 343.841,20.233 " id="marionette-polygon17" fill="#bcbec0" />
      <polygon points="402.541,17.625 403.173,23.886 375.112,35.239 375.091,29.763 " id="marionette-polygon19" fill="#a7a9ac" />
      <polygon points="406.245,19.969 406.938,26.082 403.173,23.886 402.541,17.625 " id="marionette-polygon21" fill="#bcbec0" />
      <polygon points="355.78,45.708 351.944,44.613 371.208,36.819 343.195,26.35 346.932,24.123 375.112,35.239 403.173,23.886 406.938,26.082 379.034,36.787 398.395,44.423 394.568,45.55 375.13,38.285 " id="marionette-polygon23" fill="#808285" />
      <g id="marionette-g25">
        <path d="m 343.499,61.431 c -0.02,0 -0.04,0 -0.06,-0.003 -0.33,-0.033 -0.571,-0.326 -0.538,-0.656 l 3.434,-34.607 c 0.032,-0.329 0.319,-0.571 0.656,-0.538 0.329,0.033 0.57,0.327 0.537,0.656 l -3.433,34.607 c -0.031,0.31 -0.291,0.541 -0.596,0.541 z"
        id="marionette-path27" fill="#939598" />
      </g>
      <g id="marionette-g29">
        <path d="m 405.247,61.431 c -0.314,0 -0.579,-0.246 -0.598,-0.564 l -2.075,-34.845 c -0.021,-0.331 0.231,-0.615 0.562,-0.635 0.338,-0.022 0.615,0.232 0.636,0.563 l 2.074,34.844 c 0.021,0.331 -0.231,0.615 -0.562,0.635 -0.013,0.002 -0.025,0.002 -0.037,0.002 z"
        id="marionette-path31" fill="#939598" />
      </g>
      <g id="marionette-g33">
        <path d="m 365.162,68.395 -9.935,-23.654 c -0.128,-0.306 0.016,-0.658 0.32,-0.786 0.307,-0.128 0.658,0.016 0.786,0.321 l 11.026,26.253 -2.197,-2.134 z" id="marionette-path35" fill="#939598" />
      </g>
      <path d="m 373.537,92.637 c 0,-0.832 0.646,-1.506 1.463,-1.564 V 77.321 c 0,0 -5.25,-6.15 -8.851,-10.051 -3.6,-3.9 -8.7,-10.65 -8.7,-10.65 l -5.25,29.852 c 0,0 6,7.728 11.4,12.677 4.789,4.389 11.4,8.926 11.4,8.926 V 94.201 c -0.815,-0.058 -1.462,-0.732 -1.462,-1.564 z"
      id="marionette-path37" fill="#a81e2c" />
      <g id="marionette-g39">
        <path d="m 375.111,93.537 c -0.146,0 -0.293,-0.053 -0.408,-0.16 l -20.676,-19.197 -0.006,-1.643 21.085,19.576 20.82,-19.81 0.084,1.576 -20.485,19.491 c -0.116,0.112 -0.264,0.167 -0.414,0.167 z" id="marionette-path41" fill="#939598" />
      </g>
      <path d="m 418.353,60.82 -25.802,-4.2 c 0,0 2.4,13.801 2.4,36.901 0,23.104 -3.15,38.854 -3.15,38.854 l 26.103,-2.85 c 0,0 3.3,-12.603 3.3,-34.354 -0.002,-21.75 -2.851,-34.351 -2.851,-34.351 z m -11.926,60.905 c -0.704,0 -1.274,-0.57 -1.274,-1.274 0,-0.703 0.57,-1.275 1.274,-1.275 0.705,0 1.275,0.572 1.275,1.275 0,0.703 -0.57,1.274 -1.275,1.274 z"
      id="marionette-path43" fill="#ce2227" />
      <path d="m 355.049,93.521 c 0,-23.101 2.4,-36.901 2.4,-36.901 l -25.802,4.2 c 0,0 -2.85,12.601 -2.85,34.352 0,21.752 3.3,34.354 3.3,34.354 l 26.102,2.851 c 0,-0.002 -3.15,-15.752 -3.15,-38.856 z m -11.955,28.12 c -0.657,0 -1.189,-0.533 -1.189,-1.19 0,-0.656 0.532,-1.189 1.189,-1.189 0.657,0 1.189,0.533 1.189,1.189 0,0.656 -0.532,1.19 -1.189,1.19 z"
      id="marionette-path45" fill="#ce2227" />
      <path d="M 403.427,120.449" id="marionette-path47" fill="none;stroke:#6d6e71;stroke-width:4;stroke-linecap:round;stroke-miterlimit:10" />
      <path d="M 403.427,120.449" id="marionette-path49" fill="none;stroke:#6d6e71;stroke-width:4;stroke-linecap:round;stroke-miterlimit:10" />
      <circle cx="406.427" cy="68.396004" r="1.179" id="marionette-circle51" fill="#a51724" />
      <g id="marionette-g53">
        <path d="m 406.428,121.051 c -0.046,0 -0.093,-0.006 -0.14,-0.018 -0.322,-0.076 -0.521,-0.398 -0.445,-0.723 0.019,-0.074 1.784,-7.742 1.784,-25.499 0,-17.793 -1.769,-26.208 -1.787,-26.29 -0.068,-0.324 0.137,-0.644 0.461,-0.713 0.321,-0.071 0.644,0.136 0.713,0.46 0.019,0.084 1.813,8.625 1.813,26.543 0,17.926 -1.742,25.463 -1.816,25.775 -0.066,0.279 -0.312,0.465 -0.583,0.465 z"
        id="marionette-path55" fill="#939598" />
      </g>
      <circle cx="343.09399" cy="68.396004" r="1.383" id="marionette-circle57" fill="#a51724" />
      <g id="marionette-g59">
        <path d="m 343.093,121.051 c -0.292,0 -0.548,-0.215 -0.593,-0.512 -0.015,-0.1 -1.507,-10.203 -1.507,-26.041 0,-15.838 1.492,-26.088 1.507,-26.19 0.049,-0.328 0.354,-0.553 0.682,-0.505 0.327,0.048 0.554,0.354 0.506,0.681 -0.016,0.101 -1.494,10.272 -1.494,26.015 0,15.75 1.479,25.765 1.493,25.862 0.05,0.326 -0.176,0.634 -0.504,0.683 -0.031,0.003 -0.061,0.007 -0.09,0.007 z"
        id="marionette-path61" fill="#939598" />
      </g>
    </g>
  </symbol>
  <symbol viewBox="0 0 100 100" id="nodejs">
    <title>nodejs</title>
    <g transform="matrix(1.25,0,0,-1.25,0,99.999999)" id="nodejs-g10">
      <g transform="scale(0.1,0.1)" id="nodejs-g12">
        <g transform="matrix(2.2487702,0,0,2.2487702,-3273.9058,33.110632)" id="nodejs-g14">
          <g clip-path="url(#clipPath18)" id="nodejs-g16">
            <path d="m 1633.71,2.64062 c -4.3,0 -8.57,1.125 -12.33,3.30079 l -39.27,23.23439 c -5.86,3.2812 -3,4.4414 -1.07,5.1172 7.83,2.7148 9.41,3.3398 17.76,8.0742 0.87,0.4883 2.02,0.3047 2.92,-0.2227 l 30.16,-17.9101 c 1.1,-0.6055 2.64,-0.6055 3.65,0 l 117.6,67.8789 c 1.1,0.625 1.8,1.8867 1.8,3.1836 l 0,135.7231 c 0,1.328 -0.7,2.57 -1.82,3.242 l -117.56,67.824 c -1.09,0.633 -2.53,0.633 -3.63,0 l -117.53,-67.844 c -1.14,-0.652 -1.86,-1.933 -1.86,-3.222 l 0,-135.7231 c 0,-1.2969 0.72,-2.5274 1.85,-3.1446 l 32.22,-18.6132 c 17.48,-8.7383 28.19,1.5547 28.19,11.8945 l 0,134.0044 c 0,1.894 1.52,3.39 3.41,3.39 l 14.92,0 c 1.86,0 3.4,-1.496 3.4,-3.39 l 0,-134.0044 c 0,-23.3281 -12.7,-36.707 -34.82,-36.707 -6.8,0 -12.15,0 -27.09,7.3632 l -30.84,17.754 c -7.62,4.4023 -12.33,12.6367 -12.33,21.4531 l 0,135.7231 c 0,8.82 4.71,17.05 12.33,21.437 l 117.61,67.957 c 7.44,4.211 17.33,4.211 24.71,0 l 117.6,-67.957 c 7.62,-4.406 12.35,-12.617 12.35,-21.437 l 0,-135.7231 c 0,-8.8164 -4.73,-17.0196 -12.35,-21.4531 L 1646.09,5.94141 c -3.76,-2.17579 -8.02,-3.30079 -12.38,-3.30079"
            id="nodejs-path30" fill="#83cd29" />
            <path d="m 1670.04,96.1484 c -51.47,0 -62.25,23.6216 -62.25,43.4376 0,1.883 1.52,3.387 3.4,3.387 l 15.21,0 c 1.7,0 3.11,-1.219 3.38,-2.879 2.29,-15.481 9.14,-23.293 40.26,-23.293 24.77,0 35.32,5.605 35.32,18.75 0,7.578 -2.99,13.203 -41.49,16.972 -32.18,3.184 -52.08,10.293 -52.08,36.036 0,23.73 20,37.882 53.53,37.882 37.68,0 56.32,-13.078 58.68,-41.132 0.09,-0.969 -0.25,-1.895 -0.89,-2.618 -0.65,-0.675 -1.55,-1.086 -2.49,-1.086 l -15.27,0 c -1.58,0 -2.98,1.125 -3.3,2.657 -3.66,16.289 -12.57,21.496 -36.73,21.496 -27.05,0 -30.19,-9.426 -30.19,-16.485 0,-8.554 3.71,-11.046 40.23,-15.878 36.14,-4.778 53.31,-11.543 53.31,-36.946 0,-25.625 -21.37,-40.3006 -58.63,-40.3006"
            id="nodejs-path32" fill="#83cd29" />
          </g>
        </g>
      </g>
    </g>
  </symbol>
  <symbol viewBox="0 0 500 195" id="npm">
    <title>npm-logo</title>
    <description>Created with Sketch (http://www.bohemiancoding.com/sketch)</description>
    <g id="npm-Page 1" stroke="none" stroke-width="1" fill="none" fill-rule="evenodd">
      <path d="M0,0 L500,0 L500,168 L250,168 L250,195 L139,195 L139,168 L0,168 Z M28.304251,139.493165 L83.536238,139.49349 L83.5362388,55.5592922 L111.304251,55.5592922 L111.304251,139.493491 L138.822477,139.493491 L138.822477,28.4929443 L28.304251,28.4929443 Z M166.333333,28 L166.666667,168 L221.666667,168 L221.666667,140.067308 L277.345845,140.067308 L277.345845,28 Z M221,55 L250,55 L250,112 L221,112 Z M305.333333,28 L305.333333,139 L360.664651,139 L360.664651,55.666008 L388.33133,55.666008 L388.33133,139.000547 L415.967888,139.000547 L415.967888,56 L443.664659,56 L443.664659,139 L471.338699,139 L471.338699,28 Z M305.333333,28"
      id="npm-Rectangle 1" fill="#CD3632" /> </g>
  </symbol>
  <symbol viewBox="0 0 416 286" id="polymer">
    <title>polymer</title>
    <g>
      <g>
        <polygon fill="#303F9F" points="84.157,143 42.878,214.5 84.157,286 125.436,214.5 		" />
        <polygon fill="#3F51B5" points="331.842,0 290.561,71.5 331.842,143 373.121,71.5 		" />
        <polygon fill="#7986CB" points="373.121,71.5 249.278,286 331.842,286 414.4,143 		" />
        <polygon fill="#FF4081" points="249.278,0 84.157,286 166.721,286 331.842,0 		" />
        <polygon fill="#536DFE" points="84.157,0 1.596,143 42.878,214.5 166.721,0 		" />
        <polygon fill="#FFFFFF" fill-opacity="0.2" points="249.278,0 290.561,71.5 331.842,0 		" />
        <polygon fill="#FFFFFF" fill-opacity="0.1" points="208,71.5 249.278,0 290.561,71.5 		" />
        <polygon fill="#FFFFFF" fill-opacity="0" points="208,71.5 249.278,143 290.561,71.5 		" />
        <polygon fill-opacity="0.1" points="166.721,143 208,71.5 249.278,143 		" />
        <polygon fill-opacity="0.2" points="166.721,143 208,214.5 249.278,143 		" />
        <polygon fill-opacity="0.3" points="125.438,214.5 166.721,143 208,214.5 		" />
        <polygon fill-opacity="0.4" points="125.438,214.5 166.721,286 208,214.5 		" />
        <polygon fill-opacity="0.5" points="84.157,286 125.438,214.5 166.721,286 		" />
        <polygon fill="#FFFFFF" fill-opacity="0.2" points="84.157,0 125.438,71.5 166.721,0 		" />
        <polygon fill="#FFFFFF" fill-opacity="0.1" points="42.878,71.5 84.157,0 125.438,71.5 		" />
        <polygon fill="#FFFFFF" fill-opacity="0" points="42.878,71.5 84.157,143 125.438,71.5 		" />
        <polygon fill-opacity="0.1" points="1.598,143 42.878,71.5 84.157,143 		" />
        <polygon fill-opacity="0.2" points="1.598,143 42.878,214.5 84.157,143 		" />
        <polygon fill="#FFFFFF" fill-opacity="0" points="125.438,214.5 84.157,143 42.878,214.5 		" />
        <polygon fill-opacity="0.2" points="125.438,214.5 84.157,286 42.878,214.5 		" />
        <polygon fill-opacity="0.2" points="373.121,71.5 331.842,0 290.561,71.5 		" />
        <polygon fill="#FFFFFF" fill-opacity="0" points="373.121,71.5 331.842,143 290.561,71.5 		" />
        <g>
          <polygon fill="#FFFFFF" fill-opacity="0.2" points="331.842,143 373.121,71.5 414.4,143 			" />
          <polygon fill="#FFFFFF" fill-opacity="0.1" points="331.842,143 373.121,214.5 414.4,143 			" />
          <polygon fill="#FFFFFF" fill-opacity="0" points="290.561,214.5 331.842,143 373.121,214.5 			" />
          <polygon fill-opacity="0.1" points="290.561,214.5 331.842,286 373.121,214.5 			" />
          <polygon fill-opacity="0.2" points="249.278,286 290.561,214.5 331.842,286 			" /> </g>
      </g>
      <rect y="-65" fill="none" width="416" height="416" /> </g>
    <g display="none">
      <g display="inline">
        <polygon fill="#303F9F" points="84.157,143 42.878,214.5 84.157,286 166.721,286 		" />
        <polygon fill="#3F51B5" points="331.842,0 249.278,0 331.842,143 373.121,71.5 		" />
        <polygon fill="#7986CB" points="373.121,71.5 249.278,286 331.842,286 414.4,143 		" />
        <polygon fill="#536DFE" points="84.157,0 1.596,143 42.878,214.5 166.721,0 		" />
        <polygon fill-opacity="0.5" points="249.278,0 290.561,71.5 331.842,0 		" />
        <polygon fill-opacity="0.5" points="84.157,286 125.438,214.5 166.721,286 		" />
        <polygon fill="#FFFFFF" fill-opacity="0.2" points="84.157,0 125.438,71.5 166.721,0 		" />
        <polygon fill="#FFFFFF" fill-opacity="0.1" points="42.878,71.5 84.157,0 125.438,71.5 		" />
        <polygon fill="#FFFFFF" fill-opacity="0" points="42.878,71.5 84.157,143 125.438,71.5 		" />
        <polygon fill-opacity="0.1" points="1.598,143 42.878,71.5 84.157,143 		" />
        <polygon fill-opacity="0.2" points="1.598,143 42.878,214.5 84.157,143 		" />
        <polygon fill="#FFFFFF" fill-opacity="0" points="125.438,214.5 84.157,143 42.878,214.5 		" />
        <polygon fill="#FFFFFF" fill-opacity="0" points="373.121,71.5 331.842,143 290.561,71.5 		" />
        <g>
          <polygon fill="#FFFFFF" fill-opacity="0.2" points="331.842,143 373.121,71.5 414.4,143 			" />
          <polygon fill="#FFFFFF" fill-opacity="0.1" points="331.842,143 373.121,214.5 414.4,143 			" />
          <polygon fill="#FFFFFF" fill-opacity="0" points="290.561,214.5 331.842,143 373.121,214.5 			" />
          <polygon fill-opacity="0.1" points="290.561,214.5 331.842,286 373.121,214.5 			" />
          <polygon fill-opacity="0.2" points="249.278,286 290.561,214.5 331.842,286 			" /> </g>
        <polygon fill-opacity="0.2" points="125.438,214.5 84.157,286 42.878,214.5 		" />
        <polygon fill-opacity="0.2" points="373.121,71.5 331.842,0 290.561,71.5 		" /> </g>
      <rect y="-65" display="inline" fill="none" width="416" height="416" /> </g>
    <g display="none">
      <g display="inline">
        <polygon fill="#FF4081" points="249.279,0 84.157,286 166.721,286 331.843,0 		" />
        <polygon fill="#FFFFFF" fill-opacity="0.2" points="249.279,0 290.558,71.5 331.843,0 		" />
        <polygon fill="#FFFFFF" fill-opacity="0.1" points="208,71.5 249.279,0 290.558,71.5 		" />
        <polygon fill="#FFFFFF" fill-opacity="0" points="208,71.5 249.279,143 290.558,71.5 		" />
        <polygon fill-opacity="0.2" points="166.721,143 208,214.5 249.279,143 		" />
        <polygon fill-opacity="0.3" points="125.439,214.5 166.721,143 208,214.5 		" />
        <polygon fill-opacity="0.4" points="125.439,214.5 166.721,286 208,214.5 		" />
        <polygon fill-opacity="0.5" points="84.157,286 125.439,214.5 166.721,286 		" />
        <polygon fill-opacity="0.1" points="166.721,143 208,71.5 249.279,143 		" /> </g>
      <g display="inline">
        <polygon fill="#FF4081" points="331.84,0 166.718,286 249.279,286 373.121,71.5 		" />
        <polygon fill="#FFFFFF" fill-opacity="0.1" points="290.558,71.5 331.84,0 373.121,71.5 		" />
        <polygon fill="#FFFFFF" fill-opacity="0" points="290.558,71.5 331.84,143 373.121,71.5 		" />
        <polygon fill-opacity="0.2" points="249.279,143 290.558,214.5 331.84,143 		" />
        <polygon fill-opacity="0.3" points="208,214.5 249.279,143 290.558,214.5 		" />
        <polygon fill-opacity="0.4" points="208,214.5 249.279,286 290.558,214.5 		" />
        <polygon fill-opacity="0.5" points="166.718,286 208,214.5 249.279,286 		" />
        <polygon fill-opacity="0.1" points="249.279,143 290.558,71.5 331.84,143 		" /> </g>
      <g display="inline">
        <polygon fill="#FF4081" points="166.718,0 42.878,214.5 84.16,286 249.279,0 		" />
        <polygon fill="#FFFFFF" fill-opacity="0.2" points="166.718,0 208,71.5 249.279,0 		" />
        <polygon fill="#FFFFFF" fill-opacity="0.1" points="125.439,71.5 166.718,0 208,71.5 		" />
        <polygon fill="#FFFFFF" fill-opacity="0" points="125.439,71.5 166.718,143 208,71.5 		" />
        <polygon fill-opacity="0.2" points="84.16,143 125.439,214.5 166.718,143 		" />
        <polygon fill-opacity="0.3" points="42.878,214.5 84.16,143 125.439,214.5 		" />
        <polygon fill-opacity="0.4" points="42.878,214.5 84.16,286 125.439,214.5 		" />
        <polygon fill-opacity="0.1" points="84.16,143 125.439,71.5 166.718,143 		" /> </g>
      <rect y="-65" display="inline" fill="none" width="416" height="416" />
      <g display="inline">
        <polygon fill="#303F9F" points="84.157,143 42.878,214.5 84.157,286 166.721,286 		" />
        <polygon fill="#3F51B5" points="331.843,0 249.279,0 331.843,143 373.121,71.5 		" />
        <polygon fill="#7986CB" points="373.121,71.5 249.279,286 331.843,286 414.4,143 		" />
        <polygon fill="#536DFE" points="84.157,0 1.597,143 42.878,214.5 166.721,0 		" />
        <polygon fill-opacity="0.5" points="249.279,0 290.558,71.5 331.843,0 		" />
        <polygon fill-opacity="0.5" points="84.157,286 125.439,214.5 166.721,286 		" />
        <polygon fill="#FFFFFF" fill-opacity="0.2" points="84.157,0 125.439,71.5 166.721,0 		" />
        <polygon fill="#FFFFFF" fill-opacity="0.1" points="42.878,71.5 84.157,0 125.439,71.5 		" />
        <polygon fill="#FFFFFF" fill-opacity="0" points="42.878,71.5 84.157,143 125.439,71.5 		" />
        <polygon fill-opacity="0.1" points="1.6,143 42.878,71.5 84.157,143 		" />
        <polygon fill-opacity="0.2" points="1.6,143 42.878,214.5 84.157,143 		" />
        <polygon fill="#FFFFFF" fill-opacity="0" points="125.439,214.5 84.157,143 42.878,214.5 		" />
        <polygon fill="#FFFFFF" fill-opacity="0" points="373.121,71.5 331.843,143 290.558,71.5 		" />
        <g>
          <polygon fill="#FFFFFF" fill-opacity="0.2" points="331.843,143 373.121,71.5 414.4,143 			" />
          <polygon fill="#FFFFFF" fill-opacity="0.1" points="331.843,143 373.121,214.5 414.4,143 			" />
          <polygon fill="#FFFFFF" fill-opacity="0" points="290.558,214.5 331.843,143 373.121,214.5 			" />
          <polygon fill-opacity="0.1" points="290.558,214.5 331.843,286 373.121,214.5 			" />
          <polygon fill-opacity="0.2" points="249.279,286 290.558,214.5 331.843,286 			" /> </g>
        <polygon fill-opacity="0.2" points="125.439,214.5 84.157,286 42.878,214.5 		" />
        <polygon fill-opacity="0.2" points="373.121,71.5 331.843,0 290.558,71.5 		" /> </g>
    </g>
    <g display="none">
      <g display="inline">
        <polygon fill="#9F499B" points="249.279,0 84.157,286 166.721,286 331.843,0 		" />
        <polygon fill="#FFFFFF" fill-opacity="0.2" points="249.279,0 290.558,71.5 331.843,0 		" />
        <polygon fill="#FFFFFF" fill-opacity="0.1" points="208,71.5 249.279,0 290.558,71.5 		" />
        <polygon fill="#FFFFFF" fill-opacity="0" points="208,71.5 249.279,143 290.558,71.5 		" />
        <polygon fill-opacity="0.2" points="166.721,143 208,214.5 249.279,143 		" />
        <polygon fill-opacity="0.3" points="125.439,214.5 166.721,143 208,214.5 		" />
        <polygon fill-opacity="0.4" points="125.439,214.5 166.721,286 208,214.5 		" />
        <polygon fill-opacity="0.5" points="84.157,286 125.439,214.5 166.721,286 		" />
        <polygon fill-opacity="0.1" points="166.721,143 208,71.5 249.279,143 		" /> </g>
      <g display="inline">
        <polygon fill="#9F499B" points="331.84,0 166.718,286 249.279,286 373.121,71.5 		" />
        <polygon fill="#FFFFFF" fill-opacity="0.1" points="290.558,71.5 331.84,0 373.121,71.5 		" />
        <polygon fill="#FFFFFF" fill-opacity="0" points="290.558,71.5 331.84,143 373.121,71.5 		" />
        <polygon fill-opacity="0.2" points="249.279,143 290.558,214.5 331.84,143 		" />
        <polygon fill-opacity="0.3" points="208,214.5 249.279,143 290.558,214.5 		" />
        <polygon fill-opacity="0.4" points="208,214.5 249.279,286 290.558,214.5 		" />
        <polygon fill-opacity="0.5" points="166.718,286 208,214.5 249.279,286 		" />
        <polygon fill-opacity="0.1" points="249.279,143 290.558,71.5 331.84,143 		" /> </g>
      <g display="inline">
        <polygon fill="#9F499B" points="373.121,71.5 249.279,286 331.843,286 414.4,143 		" />
        <polygon fill-opacity="0.2" points="331.843,143 373.121,214.5 414.4,143 		" />
        <polygon fill-opacity="0.3" points="290.558,214.5 331.843,143 373.121,214.5 		" />
        <polygon fill-opacity="0.4" points="290.558,214.5 331.843,286 373.121,214.5 		" />
        <polygon fill-opacity="0.5" points="249.279,286 290.558,214.5 331.843,286 		" />
        <polygon fill-opacity="0.1" points="331.843,143 373.121,71.5 414.4,143 		" /> </g>
      <g display="inline">
        <polygon fill="#9F499B" points="166.718,0 42.878,214.5 84.16,286 249.279,0 		" />
        <polygon fill="#FFFFFF" fill-opacity="0.2" points="166.718,0 208,71.5 249.279,0 		" />
        <polygon fill="#FFFFFF" fill-opacity="0.1" points="125.439,71.5 166.718,0 208,71.5 		" />
        <polygon fill="#FFFFFF" fill-opacity="0" points="125.439,71.5 166.718,143 208,71.5 		" />
        <polygon fill-opacity="0.2" points="84.16,143 125.439,214.5 166.718,143 		" />
        <polygon fill-opacity="0.3" points="42.878,214.5 84.16,143 125.439,214.5 		" />
        <polygon fill-opacity="0.4" points="42.878,214.5 84.16,286 125.439,214.5 		" />
        <polygon fill-opacity="0.1" points="84.16,143 125.439,71.5 166.718,143 		" /> </g>
      <g display="inline">
        <polygon fill="#9F499B" points="84.157,0 1.6,143 42.878,214.5 166.721,0 		" />
        <polygon fill="#FFFFFF" fill-opacity="0.2" points="84.157,0 125.439,71.5 166.721,0 		" />
        <polygon fill="#FFFFFF" fill-opacity="0.1" points="42.878,71.5 84.157,0 125.439,71.5 		" />
        <polygon fill="#FFFFFF" fill-opacity="0" points="42.878,71.5 84.157,143 125.439,71.5 		" />
        <polygon fill-opacity="0.2" points="1.6,143 42.878,214.5 84.157,143 		" />
        <polygon fill-opacity="0.1" points="1.6,143 42.878,71.5 84.157,143 		" /> </g>
      <rect y="-65" display="inline" fill="none" width="416" height="416" /> </g>
  </symbol>
  <symbol viewBox="0 0 209 206" id="sublime">
    <title>sublime</title>
    <g>
      <path fill="#999999" d="M209,188.633c0,8.103-3.141,17.367-11.175,17.367H17.666C9.632,206,0,196.735,0,188.633V29.277
		C0,21.175,9.632,17,17.666,17h180.159C205.859,17,209,21.175,209,29.277V188.633z" />
      <path fill="#D9D9D9" d="M209,182.633c0,8.103-3.141,17.367-11.175,17.367H17.666C9.632,200,0,190.735,0,182.633V27.277
		C0,19.175,9.632,15,17.666,15h180.159C205.859,15,209,19.175,209,27.277V182.633z" />
      <path fill="#262626" d="M198,169.764c0,7.241-5.32,13.236-12.5,13.236h-161c-7.18,0-13.5-5.995-13.5-13.236V33.611
		C11,26.37,17.32,21,24.5,21h161c7.18,0,12.5,5.37,12.5,12.611V169.764z" />
      <path fill="#4C4C4C" d="M198,148.764c0,7.241-5.32,13.236-12.5,13.236h-161c-7.18,0-13.5-5.995-13.5-13.236V12.611
		C11,5.37,17.32,0,24.5,0h161c7.18,0,12.5,5.37,12.5,12.611V148.764z" />
      <g>
        <path fill="#FF8100" d="M83.027,100.478c6.297,5.36,14.338,9.112,21.574,9.112c8.174,0,12.193-3.217,12.193-8.442
			c0-5.494-4.957-7.236-12.596-10.452l-11.391-4.824c-8.979-3.618-17.555-11.122-17.555-23.853c0-14.472,12.865-25.996,31.09-25.996
			c10.049,0,20.637,4.02,28.141,11.524l-10.051,12.462c-5.762-4.422-11.123-6.968-18.09-6.968c-6.834,0-11.123,2.948-11.123,7.906
			c0,5.36,5.762,7.236,13.268,10.318l11.256,4.556c10.586,4.288,17.285,11.391,17.285,23.718c0,14.473-12.061,27.068-32.965,27.068
			c-11.389,0-23.449-4.287-32.293-12.596L83.027,100.478z" /> </g>
    </g>
  </symbol>
  <symbol viewBox="0 0 600 600" id="svg">
    <title>SVG Simple Logo Tiny</title>
    <desc>Designed for the SVG Logo Contest in 2006 by Harvey Rayner. It is available under the Creative Commons license for those who have an SVG product or who are using SVG on their site.</desc>
    <metadata>
      <rdf:RDF xmlns="http://web.resource.org/cc/" xmlns:dc="http://purl.org/dc/elements/1.1/" xmlns:rdf="http://www.w3.org/1999/02/22-rdf-syntax-ns#" xmlns:rdfs="http://www.w3.org/2000/01/rdf-schema#">
        <Work rdf:about="">
          <license rdf:resource="http://creativecommons.org/licenses/by-nd/2.5/" />
          <dc:type rdf:resource="http://purl.org/dc/dcmitype/StillImage" /> </Work>
        <License rdf:about="http://creativecommons.org/licenses/by-nd/2.5/">
          <permits rdf:resource="http://web.resource.org/cc/Reproduction" />
          <permits rdf:resource="http://web.resource.org/cc/Distribution" />
          <requires rdf:resource="http://web.resource.org/cc/Notice" />
          <requires rdf:resource="http://web.resource.org/cc/Attribution" /> </License>
      </rdf:RDF>
    </metadata>
    <g>
      <g id="svg-node_outline" fill="#000000">
        <circle cx="521.638" cy="300" r="45.9027" />
        <circle cx="489.181" cy="221.639" r="45.9024" />
        <circle cx="410.818" cy="189.181" r="45.9024" />
        <circle cx="378.361" cy="110.82" r="45.9024" />
        <circle cx="300" cy="78.3614" r="45.9024" />
        <circle cx="221.639" cy="110.82" r="45.9024" />
        <circle cx="189.181" cy="189.181" r="45.9024" />
        <circle cx="110.82" cy="221.639" r="45.9024" />
        <circle cx="78.3618" cy="300" r="45.9027" />
        <circle cx="110.819" cy="378.363" r="45.9012" />
        <circle cx="189.18" cy="410.819" r="45.9012" />
        <circle cx="221.639" cy="489.18" r="45.9024" />
        <circle cx="300" cy="521.639" r="45.9024" />
        <circle cx="378.361" cy="489.18" r="45.9024" />
        <circle cx="410.819" cy="410.82" r="45.9012" />
        <circle cx="489.181" cy="378.361" r="45.9024" />
        <rect x="200" y="100" width="200" height="400" />
        <rect x="100" y="200" width="400" height="200" /> </g>
      <g id="svg-nodes" fill="#ffffff">
        <circle cx="521.639" cy="300" r="24.848" />
        <circle cx="489.181" cy="221.639" r="24.848" />
        <circle cx="410.82" cy="189.181" r="24.8492" />
        <circle cx="378.36" cy="110.82" r="24.848" />
        <circle cx="300.001" cy="78.3614" r="24.848" />
        <circle cx="221.639" cy="110.82" r="24.8492" />
        <circle cx="189.181" cy="189.182" r="24.8504" />
        <circle cx="110.82" cy="221.639" r="24.848" />
        <circle cx="78.3626" cy="299.999" r="24.848" />
        <circle cx="110.82" cy="378.36" r="24.8469" />
        <circle cx="189.181" cy="410.82" r="24.8504" />
        <circle cx="221.64" cy="489.18" r="24.848" />
        <circle cx="300" cy="521.639" r="24.848" />
        <circle cx="378.361" cy="489.178" r="24.848" />
        <circle cx="410.82" cy="410.82" r="24.8469" />
        <circle cx="489.181" cy="378.361" r="24.848" /> </g>
      <g id="svg-connectors" stroke="white" fill="none" stroke-width="35.1378">
        <line x1="221.639" y1="110.819" x2="489.181" y2="378.361" />
        <line x1="189.181" y1="189.181" x2="410.819" y2="189.181" />
        <line x1="110.819" y1="378.361" x2="378.361" y2="110.819" />
        <line x1="189.181" y1="410.819" x2="189.181" y2="189.181" />
        <line x1="300.001" y1="521.637" x2="300.001" y2="78.3614" />
        <line x1="378.363" y1="489.18" x2="110.82" y2="221.639" />
        <line x1="410.82" y1="410.819" x2="189.182" y2="410.819" />
        <line x1="521.639" y1="299.999" x2="78.3626" y2="299.999" />
        <line x1="489.181" y1="221.639" x2="221.64" y2="489.18" />
        <line x1="410.82" y1="189.18" x2="410.82" y2="410.818" /> </g>
      <rect fill="#7f7f7f" x="189.189" y="189.181" width="221.631" height="221.639" />
      <g id="svg-SVG" fill="#ffffff">
        <path id="svg-S" d="M219.402 301.214c-5.38819,-5.38819 -8.72126,-12.8315 -8.72126,-21.0508 0,-16.4409 13.3323,-29.7732 29.772,-29.7732 16.4398,0 29.772,13.3323 29.772,29.7732l-17.4402 0c0,-6.81024 -5.52283,-12.3331 -12.3319,-12.3331 -6.81024,0 -12.3319,5.52283 -12.3319,12.3331 0,3.40157 1.37717,6.48189 3.60591,8.71299l0.00590551 0c2.2311,2.23346 5.31378,3.61417 8.72008,3.61417l0 0.00472441c8.21929,0 15.6614,3.33425 21.0496,8.72244l0.0011811 -0.0011811c5.38819,5.38819 8.72126,12.8315 8.72126,21.052 0,16.4398 -13.3323,29.7732 -29.772,29.7732 -16.4398,0 -29.772,-13.3335 -29.772,-29.7732l17.4402 0c0,6.80906 5.52165,12.3319 12.3319,12.3319 6.80906,0 12.3319,-5.52283 12.3319,-12.3319 0,-3.40157 -1.37835,-6.48189 -3.60591,-8.71417l-0.00590551 0c-2.23228,-2.23228 -5.31496,-3.61417 -8.72008,-3.61417l0 -0.00472441c-8.22047,0 -15.6626,-3.33307 -21.0508,-8.72126l0 0z"
        />
        <polygon id="svg-V" points="329.767,250.39 308.715,352.042 291.275,352.042 270.224,250.39 287.668,250.39 299.995,309.927 312.324,250.39" />
        <path id="svg-G" d="M359.544 292.498l29.772 0 0 29.7685 0.00354331 0c0,16.4409 -13.3323,29.7756 -29.7732,29.7744 -16.4409,0.0011811 -29.7732,-13.3323 -29.7744,-29.772l0 -0.0023622 0 -42.1016 -0.00472441 0c0,-16.4409 13.3335,-29.7744 29.7744,-29.7744 16.4409,0 29.7744,13.3335 29.7744,29.7744l-17.4449 0c0,-6.80669 -5.52047,-12.3272 -12.3272,-12.3272 -6.80787,0 -12.3283,5.52047 -12.3283,12.3272l0 42.1039 0 0c0.0011811,6.80669 5.52165,12.326 12.3283,12.326 6.80551,0 12.3248,-5.51811 12.3272,-12.3236l0 -0.00472441 0 -12.3236 -12.3272 0 0 -17.4449z"
        /> </g>
    </g>
  </symbol>
  <symbol viewBox="0 0 150 150" id="wordpress">
    <title>wordpress</title>
    <metadata id="wordpress-metadata38">
      <rdf:RDF>
        <cc:Work rdf:about="">
          <dc:format>image/svg+xml</dc:format>
          <dc:type rdf:resource="http://purl.org/dc/dcmitype/StillImage" />
          <dc:title/>
        </cc:Work>
      </rdf:RDF>
    </metadata>
    <g transform="translate(14,13.476923)" id="wordpress-Layer_2">
      <g id="wordpress-g6">
        <g id="wordpress-g22">
          <path d="m 8.708,61.26 c 0,20.802 12.089,38.779 29.619,47.298 L 13.258,39.872 c -2.916,6.536 -4.55,13.769 -4.55,21.388 z" id="wordpress-path24" />
          <path d="m 96.74,58.608 c 0,-6.495 -2.333,-10.993 -4.334,-14.494 -2.664,-4.329 -5.161,-7.995 -5.161,-12.324 0,-4.831 3.664,-9.328 8.825,-9.328 0.233,0 0.454,0.029 0.681,0.042 C 87.401,13.938 74.944,8.708 61.262,8.708 c -18.36,0 -34.513,9.42 -43.91,23.688 1.233,0.037 2.395,0.063 3.382,0.063 5.497,0 14.006,-0.667 14.006,-0.667 2.833,-0.167 3.167,3.994 0.337,4.329 0,0 -2.847,0.335 -6.015,0.501 L 48.2,93.547 59.701,59.054 51.513,36.62 c -2.83,-0.166 -5.511,-0.501 -5.511,-0.501 -2.832,-0.166 -2.5,-4.496 0.332,-4.329 0,0 8.679,0.667 13.843,0.667 5.496,0 14.006,-0.667 14.006,-0.667 2.835,-0.167 3.168,3.994 0.337,4.329 0,0 -2.853,0.335 -6.015,0.501 l 18.992,56.494 5.242,-17.517 c 2.272,-7.269 4.001,-12.49 4.001,-16.989 z"
          id="wordpress-path26" />
          <path d="m 62.184,65.857 -15.768,45.819 c 4.708,1.384 9.687,2.141 14.846,2.141 6.12,0 11.989,-1.058 17.452,-2.979 -0.141,-0.225 -0.269,-0.464 -0.374,-0.724 L 62.184,65.857 z" id="wordpress-path28" />
          <path d="m 107.376,36.046 c 0.226,1.674 0.354,3.471 0.354,5.404 0,5.333 -0.996,11.328 -3.996,18.824 l -16.053,46.413 c 15.624,-9.111 26.133,-26.038 26.133,-45.426 0.001,-9.137 -2.333,-17.729 -6.438,-25.215 z" id="wordpress-path30" />
          <path d="M 61.262,0 C 27.483,0 0,27.481 0,61.26 c 0,33.783 27.483,61.263 61.262,61.263 33.778,0 61.265,-27.48 61.265,-61.263 C 122.526,27.481 95.04,0 61.262,0 z m 0,119.715 c -32.23,0 -58.453,-26.223 -58.453,-58.455 0,-32.23 26.222,-58.451 58.453,-58.451 32.229,0 58.45,26.221 58.45,58.451 0,32.232 -26.221,58.455 -58.45,58.455 z"
          id="wordpress-path32" />
        </g>
      </g>
    </g>
  </symbol>
</svg>